<?xml version="1.0" encoding="UTF-8" standalone="no"?>
<!-- Created with Inkscape (http://www.inkscape.org/) -->

<svg
   xmlns:dc="http://purl.org/dc/elements/1.1/"
   xmlns:cc="http://creativecommons.org/ns#"
   xmlns:rdf="http://www.w3.org/1999/02/22-rdf-syntax-ns#"
   xmlns:svg="http://www.w3.org/2000/svg"
   xmlns="http://www.w3.org/2000/svg"
   xmlns:xlink="http://www.w3.org/1999/xlink"
   xmlns:sodipodi="http://sodipodi.sourceforge.net/DTD/sodipodi-0.dtd"
   xmlns:inkscape="http://www.inkscape.org/namespaces/inkscape"
   width="200"
   height="200"
   id="svg2"
   version="1.1"
   inkscape:version="0.91 r13725"
   sodipodi:docname="view-grid-symbolic.svg">
  <defs
     id="defs4">
    <linearGradient
       id="linearGradient10271">
      <stop
         style="stop-color:#cbe2e7;stop-opacity:1;"
         offset="0"
         id="stop10273" />
      <stop
         style="stop-color:#797979;stop-opacity:1;"
         offset="1"
         id="stop10275" />
    </linearGradient>
    <inkscape:perspective
       sodipodi:type="inkscape:persp3d"
       inkscape:vp_x="13.534465 : 111.04854 : 1"
       inkscape:vp_y="0 : 1000 : 0"
       inkscape:vp_z="213.53447 : 111.04854 : 1"
       inkscape:persp3d-origin="113.53447 : 77.71521 : 1"
       id="perspective3135" />
    <linearGradient
       id="linearGradient4829">
      <stop
         style="stop-color:#f4fbfc;stop-opacity:1;"
         offset="0"
         id="stop4831" />
      <stop
         style="stop-color:#d6d6d6;stop-opacity:1;"
         offset="1"
         id="stop4833" />
    </linearGradient>
    <clipPath
       clipPathUnits="userSpaceOnUse"
       id="clipPath4282">
      <rect
         style="color:#000000;fill:#4d4d4d;fill-opacity:1;fill-rule:nonzero;stroke:none;stroke-width:9.13434315;marker:none;visibility:visible;display:inline;overflow:visible;enable-background:accumulate"
         id="rect4284"
         width="246.875"
         height="234.375"
         x="462.5"
         y="1646.1122"
         ry="17"
         rx="17" />
    </clipPath>
    <linearGradient
       inkscape:collect="always"
       xlink:href="#linearGradient5423"
       id="linearGradient5429"
       x1="408.66196"
       y1="44.604382"
       x2="408.66196"
       y2="562.04968"
       gradientUnits="userSpaceOnUse" />
    <linearGradient
       id="linearGradient5423">
      <stop
         style="stop-color:#db8451;stop-opacity:1;"
         offset="0"
         id="stop5425" />
      <stop
         style="stop-color:#c85c29;stop-opacity:1;"
         offset="1"
         id="stop5427" />
    </linearGradient>
    <linearGradient
       inkscape:collect="always"
       xlink:href="#linearGradient3986"
       id="linearGradient3992"
       x1="78.5625"
       y1="993.6615"
       x2="120.28125"
       y2="993.6615"
       gradientUnits="userSpaceOnUse" />
    <linearGradient
       inkscape:collect="always"
       id="linearGradient3986">
      <stop
         style="stop-color:#000000;stop-opacity:1;"
         offset="0"
         id="stop3988" />
      <stop
         style="stop-color:#000000;stop-opacity:0;"
         offset="1"
         id="stop3990" />
    </linearGradient>
    <linearGradient
       inkscape:collect="always"
       xlink:href="#linearGradient5423-1"
       id="linearGradient5473-2"
       x1="99.036476"
       y1="-0.50471628"
       x2="99.036476"
       y2="199.83986"
       gradientUnits="userSpaceOnUse" />
    <linearGradient
       id="linearGradient5423-1">
      <stop
         style="stop-color:#51b9db;stop-opacity:1;"
         offset="0"
         id="stop5425-2" />
      <stop
         style="stop-color:#2fabd4;stop-opacity:1;"
         offset="1"
         id="stop5427-3" />
    </linearGradient>
    <linearGradient
       y2="199.83986"
       x2="99.036476"
       y1="-0.50471628"
       x1="99.036476"
       gradientUnits="userSpaceOnUse"
       id="linearGradient4119"
       xlink:href="#linearGradient5423-1"
       inkscape:collect="always" />
    <linearGradient
       inkscape:collect="always"
       xlink:href="#linearGradient4829"
       id="linearGradient4159"
       x1="100"
       y1="852.36218"
       x2="100"
       y2="1052.3622"
       gradientUnits="userSpaceOnUse" />
    <linearGradient
       inkscape:collect="always"
       xlink:href="#linearGradient10271"
       id="linearGradient10277"
       x1="-1130.8994"
       y1="763.31989"
       x2="-1130.8994"
       y2="823.06317"
       gradientUnits="userSpaceOnUse" />
  </defs>
  <sodipodi:namedview
     id="base"
     pagecolor="#ffffff"
     bordercolor="#666666"
     borderopacity="1.0"
     inkscape:pageopacity="0.0"
     inkscape:pageshadow="2"
     inkscape:zoom="1"
     inkscape:cx="260.02192"
     inkscape:cy="-43.36749"
     inkscape:document-units="px"
     inkscape:current-layer="layer1"
     showgrid="false"
     inkscape:window-width="1920"
     inkscape:window-height="935"
     inkscape:window-x="1920"
     inkscape:window-y="32"
     inkscape:window-maximized="1"
     inkscape:snap-from-guide="true"
     showguides="true"
     inkscape:guide-bbox="true">
    <sodipodi:guide
       position="200,0"
       orientation="-200,0"
       id="guide3766" />
    <sodipodi:guide
       position="0,200"
       orientation="200,0"
       id="guide3127" />
    <sodipodi:guide
       position="0,-2.6171874e-06"
       orientation="0,100"
       id="guide3129" />
    <sodipodi:guide
       position="100,-2.6171874e-06"
       orientation="-200,0"
       id="guide3131" />
    <sodipodi:guide
       position="100,200"
       orientation="0,-100"
       id="guide3133" />
  </sodipodi:namedview>
  <metadata
     id="metadata7">
    <rdf:RDF>
      <cc:Work
         rdf:about="">
        <dc:format>image/svg+xml</dc:format>
        <dc:type
           rdf:resource="http://purl.org/dc/dcmitype/StillImage" />
        <dc:title></dc:title>
      </cc:Work>
    </rdf:RDF>
  </metadata>
  <g
     inkscape:label="Layer 1"
     inkscape:groupmode="layer"
     id="layer1"
     transform="translate(0,-852.36218)">
    <path
       style="opacity:1;fill:#757575;fill-opacity:1;stroke:none;stroke-width:8;stroke-linecap:round;stroke-miterlimit:4;stroke-dasharray:none;stroke-opacity:1"
       d="M 45.842269,892.89934 A 13.671526,13.671526 0 0 0 32.169921,906.5717 13.671526,13.671526 0 0 0 45.842269,920.24149 13.671526,13.671526 0 0 0 59.51206,906.5717 13.671526,13.671526 0 0 0 45.842269,892.89934 Z m 54.15773,0 A 13.671526,13.671526 0 0 0 86.327651,906.5717 13.671526,13.671526 0 0 0 99.999999,920.24149 13.671526,13.671526 0 0 0 113.67235,906.5717 13.671526,13.671526 0 0 0 99.999999,892.89934 Z m 54.157731,0 a 13.671526,13.671526 0 0 0 -13.66979,13.67236 13.671526,13.671526 0 0 0 13.66979,13.66979 13.671526,13.671526 0 0 0 13.67235,-13.66979 13.671526,13.671526 0 0 0 -13.67235,-13.67236 z M 45.842269,938.67577 a 13.671526,13.671526 0 0 0 -13.672348,13.67234 13.671526,13.671526 0 0 0 13.672348,13.6698 13.671526,13.671526 0 0 0 13.669791,-13.6698 13.671526,13.671526 0 0 0 -13.669791,-13.67234 z m 54.15773,0 a 13.671526,13.671526 0 0 0 -13.672348,13.67234 13.671526,13.671526 0 0 0 13.672348,13.6698 13.671526,13.671526 0 0 0 13.672351,-13.6698 13.671526,13.671526 0 0 0 -13.672351,-13.67234 z m 54.157731,0 a 13.671526,13.671526 0 0 0 -13.66979,13.67234 13.671526,13.671526 0 0 0 13.66979,13.6698 13.671526,13.671526 0 0 0 13.67235,-13.6698 13.671526,13.671526 0 0 0 -13.67235,-13.67234 z M 45.842269,984.48286 c -7.551214,-4.6e-4 -13.672798,6.12113 -13.672348,13.67239 9.67e-4,7.55015 6.122135,13.67015 13.672348,13.66975 7.549213,-9e-4 13.668824,-6.1205 13.669791,-13.66975 4.5e-4,-7.55025 -6.119575,-13.67144 -13.669791,-13.67239 z m 54.15773,0 c -7.551215,-4.6e-4 -13.672799,6.12113 -13.672348,13.67239 9.67e-4,7.55015 6.122134,13.67015 13.672348,13.66975 7.550211,4e-4 13.671381,-6.1196 13.672351,-13.66975 4.5e-4,-7.55126 -6.12113,-13.67285 -13.672351,-13.67239 z m 54.157731,0 c -7.55021,9.5e-4 -13.67024,6.12214 -13.66979,13.67239 9.7e-4,7.54925 6.12057,13.66885 13.66979,13.66975 7.55021,4e-4 13.67138,-6.1196 13.67235,-13.66975 4.4e-4,-7.55126 -6.12114,-13.67285 -13.67235,-13.67239 z"
       id="path7461"
       inkscape:connector-curvature="0" />
  </g>
</svg>
