<?xml version="1.0" encoding="UTF-8" standalone="no"?>
<!-- Created with Inkscape (http://www.inkscape.org/) -->

<svg
   xmlns:dc="http://purl.org/dc/elements/1.1/"
   xmlns:cc="http://creativecommons.org/ns#"
   xmlns:rdf="http://www.w3.org/1999/02/22-rdf-syntax-ns#"
   xmlns:svg="http://www.w3.org/2000/svg"
   xmlns="http://www.w3.org/2000/svg"
   xmlns:xlink="http://www.w3.org/1999/xlink"
   xmlns:sodipodi="http://sodipodi.sourceforge.net/DTD/sodipodi-0.dtd"
   xmlns:inkscape="http://www.inkscape.org/namespaces/inkscape"
   width="200"
   height="200"
   viewBox="0 0 200 200"
   id="svg4258"
   version="1.1"
   inkscape:version="0.91 r13725"
   sodipodi:docname="atom.svg">
  <defs
     id="defs4260">
    <linearGradient
       inkscape:collect="always"
       id="linearGradient5510">
      <stop
         style="stop-color:#000000;stop-opacity:1;"
         offset="0"
         id="stop5512" />
      <stop
         style="stop-color:#000000;stop-opacity:0;"
         offset="1"
         id="stop5514" />
    </linearGradient>
    <linearGradient
       inkscape:collect="always"
       id="linearGradient5502">
      <stop
         style="stop-color:#000000;stop-opacity:0.2"
         offset="0"
         id="stop5504" />
      <stop
         style="stop-color:#000000;stop-opacity:0.05098039"
         offset="1"
         id="stop5506" />
    </linearGradient>
    <linearGradient
       inkscape:collect="always"
       id="linearGradient5358">
      <stop
         style="stop-color:#6ce0b1;stop-opacity:1;"
         offset="0"
         id="stop5360" />
      <stop
         style="stop-color:#92e9c6;stop-opacity:0.98431373"
         offset="1"
         id="stop5362" />
    </linearGradient>
    <clipPath
       clipPathUnits="userSpaceOnUse"
       id="clipPath4278">
      <path
         sodipodi:nodetypes="ssssssccs"
         style="fill:#e1e1e1;fill-opacity:1;stroke:none"
         d="m 300,196 c -2.216,0 -4,1.784 -4,4 l 0,72 c 0,2.216 1.784,4 4,4 l 56,0 c 2.216,0 4,-1.784 4,-4 l 0,-52 -24,-24 z"
         id="path4280"
         inkscape:connector-curvature="0" />
    </clipPath>
    <linearGradient
       inkscape:collect="always"
       id="linearGradient4081">
      <stop
         style="stop-color:#000000;stop-opacity:1;"
         offset="0"
         id="stop4083" />
      <stop
         style="stop-color:#000000;stop-opacity:0;"
         offset="1"
         id="stop4086" />
    </linearGradient>
    <linearGradient
       inkscape:collect="always"
       xlink:href="#linearGradient4081"
       id="linearGradient4196-5"
       gradientUnits="userSpaceOnUse"
       gradientTransform="matrix(4.3977476,0,0,4.3977476,-172.95829,-172.80972)"
       x1="168"
       y1="266"
       x2="160"
       y2="270" />
    <filter
       inkscape:collect="always"
       id="filter4210-9">
      <feGaussianBlur
         inkscape:collect="always"
         stdDeviation="1.6"
         id="feGaussianBlur4212-0" />
    </filter>
    <clipPath
       clipPathUnits="userSpaceOnUse"
       id="clipPath6381">
      <path
         style="display:inline;fill:#78909c;fill-opacity:1;stroke:none;enable-background:new"
         d="m 99.701172,863.95982 c -30.856318,0 -57.834649,15.80491 -73.523438,39.71679 -0.0053,0.091 -0.0048,0.17686 -0.0098,0.26758 -17.6512218,26.86944 -19.7779367,62.35948 -2.548828,92.20117 15.428134,26.72234 42.605519,42.18354 71.158203,43.81444 0.07622,-0.052 0.146798,-0.1058 0.222656,-0.1582 32.09333,1.8497 63.8891,-14.0546 81.11719,-43.89452 15.42818,-26.72234 15.22912,-57.99038 2.36523,-83.5332 l -0.52148,0 0.35156,-0.0391 c -14.43121,-28.75854 -44.12578,-48.375 -78.611328,-48.375 z"
         id="path6383"
         inkscape:connector-curvature="0" />
    </clipPath>
    <linearGradient
       inkscape:collect="always"
       xlink:href="#linearGradient5358"
       id="linearGradient5364"
       x1="99.504784"
       y1="16.347656"
       x2="99.504784"
       y2="205.0639"
       gradientUnits="userSpaceOnUse" />
    <linearGradient
       inkscape:collect="always"
       xlink:href="#linearGradient5502"
       id="linearGradient5508"
       x1="48.875"
       y1="49.376953"
       x2="167.0361"
       y2="167.53806"
       gradientUnits="userSpaceOnUse" />
    <linearGradient
       inkscape:collect="always"
       xlink:href="#linearGradient5510"
       id="linearGradient5516"
       x1="81.385811"
       y1="80.316475"
       x2="241.72803"
       y2="240.65869"
       gradientUnits="userSpaceOnUse" />
  </defs>
  <sodipodi:namedview
     id="base"
     pagecolor="#4e4e4e"
     bordercolor="#666666"
     borderopacity="1.0"
     inkscape:pageopacity="0"
     inkscape:pageshadow="2"
     inkscape:zoom="2.8284271"
     inkscape:cx="126.21199"
     inkscape:cy="113.86588"
     inkscape:document-units="px"
     inkscape:current-layer="layer1"
     showgrid="false"
     units="px"
     inkscape:window-width="1920"
     inkscape:window-height="945"
     inkscape:window-x="1920"
     inkscape:window-y="32"
     inkscape:window-maximized="1"
     inkscape:object-paths="true"
     inkscape:snap-intersection-paths="true"
     inkscape:object-nodes="true"
     inkscape:snap-smooth-nodes="true"
     inkscape:snap-midpoints="true"
     inkscape:snap-object-midpoints="true"
     inkscape:snap-center="true"
     inkscape:snap-text-baseline="true"
     inkscape:snap-page="true" />
  <metadata
     id="metadata4263">
    <rdf:RDF>
      <cc:Work
         rdf:about="">
        <dc:format>image/svg+xml</dc:format>
        <dc:type
           rdf:resource="http://purl.org/dc/dcmitype/StillImage" />
        <dc:title />
      </cc:Work>
    </rdf:RDF>
  </metadata>
  <g
     inkscape:label="Layer 1"
     inkscape:groupmode="layer"
     id="layer1"
     transform="translate(0,-852.36216)">
    <rect
       ry="80"
       rx="80"
       y="-568"
       x="-269"
       height="160"
       width="160"
       id="rect4104-5"
       style="display:inline;opacity:0.5;fill:#000000;fill-opacity:1;stroke:none;filter:url(#filter4210-9);enable-background:new"
       transform="matrix(0,-1.0994369,-1.0994369,0,-436.82315,745.22009)" />
    <path
       id="path4106-9"
       d="m 99.702061,1039.8692 c -48.727048,0 -87.954957,-39.2279 -87.954957,-87.95497 0,-0.73759 -0.01759,-1.46572 0,-2.19887 1.16294,47.69951 39.965499,85.75614 87.954957,85.75614 47.989449,0 86.792009,-38.05663 87.954949,-85.75614 0.0176,0.73315 0,1.46128 0,2.19887 0,48.72707 -39.22791,87.95497 -87.954949,87.95497 z"
       style="display:inline;opacity:0.1;fill:#000000;fill-opacity:1;stroke:none;enable-background:new"
       inkscape:connector-curvature="0" />
    <path
       style="display:inline;fill:url(#linearGradient5364);fill-opacity:1;stroke:none;enable-background:new"
       d="m 99.701172,11.597656 c -30.856318,0 -57.834649,15.804917 -73.523438,39.716797 -0.0053,0.09102 -0.0048,0.176855 -0.0098,0.267578 C 8.5166431,78.451473 6.3900335,113.94151 23.619141,143.7832 c 15.428134,26.72239 42.605519,42.18356 71.158203,43.81446 0.07622,-0.0523 0.146798,-0.10582 0.222656,-0.15821 32.09333,1.84972 63.8891,-14.05459 81.11719,-43.89453 15.42818,-26.72234 15.22912,-57.990381 2.36523,-83.533201 l -0.52148,0 0.35156,-0.03906 c -14.43121,-28.75854 -44.12578,-48.375 -78.611328,-48.375 z"
       transform="translate(0,852.36216)"
       id="path4108-0"
       inkscape:connector-curvature="0"
       sodipodi:nodetypes="sccsccscccs" />
    <path
       inkscape:connector-curvature="0"
       style="display:inline;opacity:0.1;fill:#ffffff;fill-opacity:1;stroke:none;enable-background:new"
       d="m 99.702061,863.95928 c -47.941918,0 -86.581364,37.9855 -87.817527,85.61865 0.01396,-0.27762 0.05222,-0.54765 0.06871,-0.82458 0.03375,-0.71517 0.08685,-1.41966 0.137429,-2.13016 0.01099,-0.12614 0.02331,-0.25195 0.0343,-0.37793 0.05156,-0.58552 0.108954,-1.17013 0.171787,-1.75223 4.263759,-44.68648 41.563398,-79.43431 87.405293,-79.43431 45.841889,0 83.141529,34.74783 87.405229,79.43431 0.0629,0.5821 0.12025,1.16671 0.17179,1.75223 0.0554,0.73441 0.13432,1.45943 0.17179,2.19887 0.007,0.10313 -0.007,0.20599 0,0.30922 0.0165,0.27693 0.0547,0.54696 0.0687,0.82458 -1.23616,-47.63315 -39.87561,-85.61865 -87.817519,-85.61865 z"
       id="path4118-6" />
    <path
       style="display:inline;opacity:0.2;fill:url(#linearGradient4196-5);fill-opacity:1;stroke:none;enable-background:new"
       d="M 133.97912,971.70405 99.702061,951.91419 94.555019,1039.9109 Z"
       id="path4120-7"
       inkscape:connector-curvature="0" />
    <path
       inkscape:connector-curvature="0"
       style="display:inline;opacity:0.1;fill:#ffffff;fill-opacity:1;stroke:none;enable-background:new"
       d="m 11.884534,954.66282 c 1.448134,47.43998 40.013874,85.20638 87.817527,85.20638 47.803649,0 86.369389,-37.7664 87.817519,-85.20638 -0.0565,1.12117 -0.14282,2.22321 -0.2405,3.33267 -0.0698,0.7926 -0.15003,1.58437 -0.2405,2.37066 -0.10522,0.98266 -0.24093,1.94788 -0.37793,2.92038 -6.02416,42.76407 -42.47826,75.48327 -86.958589,75.48327 -44.48033,0 -80.934437,-32.7192 -86.958592,-75.48327 -0.137001,-0.9725 -0.272705,-1.93772 -0.377932,-2.92038 -0.09048,-0.78629 -0.17072,-1.57806 -0.240501,-2.37066 -0.09763,-1.10946 -0.184035,-2.2115 -0.240502,-3.33267 z"
       id="path4122-4" />
    <path
       style="fill:url(#linearGradient5508);fill-rule:evenodd;stroke:none;stroke-width:1px;stroke-linecap:butt;stroke-linejoin:miter;stroke-opacity:1;fill-opacity:1;opacity:1"
       d="M 77.802734 45.261719 L 71.064453 51.154297 L 68.5 64.765625 L 70.445312 79.261719 L 61.5625 81.34375 L 48.142578 91.066406 L 43.125 96 L 46.419922 107.82812 L 62.371094 123.7793 L 62.753906 146.21875 L 104.02734 187.49219 C 132.93985 186.17533 160.50811 170.58069 176.11719 143.54492 C 183.30791 131.09024 187.09948 117.64752 187.80078 104.25781 L 134.83984 51.296875 L 133.73633 49.791016 L 132.31641 51.773438 L 129.04688 49.5625 L 115.43555 52.390625 L 104.00195 60.775391 L 95.300781 52.074219 L 77.802734 45.261719 z "
       transform="translate(0,852.36216)"
       id="path5461" />
    <path
       style="fill:url(#linearGradient5516);fill-rule:evenodd;stroke:none;stroke-width:1px;stroke-linecap:butt;stroke-linejoin:miter;stroke-opacity:1;fill-opacity:1;opacity:0.037"
       d="M 105.99414 94.830078 L 94.183594 103.20898 L 157.29492 166.31836 C 160.86493 163.23929 164.22061 159.84966 167.3125 156.14844 L 105.99414 94.830078 z "
       transform="translate(0,852.36216)"
       id="path5457" />
    <path
       style="color:#000000;font-style:normal;font-variant:normal;font-weight:normal;font-stretch:normal;font-size:medium;line-height:normal;font-family:sans-serif;text-indent:0;text-align:start;text-decoration:none;text-decoration-line:none;text-decoration-style:solid;text-decoration-color:#000000;letter-spacing:normal;word-spacing:normal;text-transform:none;direction:ltr;block-progression:tb;writing-mode:lr-tb;baseline-shift:baseline;text-anchor:start;white-space:normal;clip-rule:nonzero;display:inline;overflow:visible;visibility:visible;opacity:1;isolation:auto;mix-blend-mode:normal;color-interpolation:sRGB;color-interpolation-filters:linearRGB;solid-color:#000000;solid-opacity:1;fill:#ffffff;fill-opacity:1;fill-rule:evenodd;stroke:none;stroke-width:3.29999995;stroke-linecap:round;stroke-linejoin:round;stroke-miterlimit:4;stroke-dasharray:none;stroke-dashoffset:0;stroke-opacity:1;color-rendering:auto;image-rendering:auto;shape-rendering:auto;text-rendering:auto;enable-background:accumulate"
       d="M 79.621094 44.689453 C 79.322959 44.693793 79.111385 44.705078 79.003906 44.705078 C 77.936773 44.705078 74.437577 44.809904 71.285156 47.396484 C 68.132734 49.983094 65.697264 54.858641 65.697266 62.837891 C 65.697266 67.014748 66.107056 71.858297 66.978516 77.095703 C 59.77785 78.693874 54.472489 80.883862 50.287109 83.009766 C 47.514252 84.418216 45.060497 86.103711 43.214844 88.269531 C 41.36919 90.435331 40.166887 93.206857 40.277344 96.216797 C 40.498256 102.23668 45.211094 108.07433 54.966797 114.57812 A 3.0050383 3.0050383 0 1 0 58.300781 109.58008 C 49.228698 103.53203 46.380227 98.746404 46.279297 95.996094 C 46.228827 94.620924 46.675834 93.470066 47.787109 92.166016 C 48.898383 90.861956 50.71165 89.531534 53.007812 88.365234 C 56.825747 86.425974 61.576602 84.413272 68.111328 82.931641 C 69.161036 87.6258 70.596863 92.549308 72.443359 97.552734 C 68.773276 104.73978 65.544692 112.55434 63.333984 119.88086 C 61.719057 125.23289 60.63629 130.30346 60.363281 134.76172 C 60.090273 139.21995 60.493902 143.18561 62.753906 146.21875 C 66.483495 151.22427 72.366589 152.44483 77.486328 151.11133 C 82.606066 149.77783 87.369543 146.42148 91.265625 142.52539 A 3.0047052 3.0047052 0 1 0 87.015625 138.27539 C 83.67025 141.62078 79.500482 144.37945 75.970703 145.29883 C 72.440924 146.21822 69.957685 145.82844 67.572266 142.62695 C 66.774763 141.55661 66.133412 138.88658 66.363281 135.13281 C 66.59315 131.37905 67.5629 126.66274 69.085938 121.61523 C 70.701836 116.25998 72.945478 110.52576 75.501953 105.00781 C 78.383201 111.38042 81.96053 117.75814 86.392578 123.82812 C 93.860313 134.05566 100.18477 141.55751 105.99023 146.64258 C 111.79568 151.72763 117.24842 154.50781 122.77344 154.50781 C 125.84886 154.50781 128.55122 153.10054 130.36523 151.11914 C 132.17924 149.13774 133.27423 146.68262 134.02148 144.14648 C 135.51598 139.07423 135.61571 133.58279 135.25391 129.96484 C 134.8825 126.25069 133.26769 118.36414 130.91211 110.10938 C 128.55653 101.8546 125.80941 93.627597 121.82422 89.029297 A 3.0047707 3.0047707 0 1 0 117.2832 92.966797 C 119.57394 95.609967 122.86386 103.7978 125.13477 111.75586 C 127.40568 119.7139 129.00507 127.83981 129.27734 130.5625 C 129.55923 133.3814 129.42047 138.50793 128.25977 142.44727 C 127.67942 144.41694 126.84715 146.06682 125.93555 147.0625 C 125.02396 148.05817 124.2038 148.49805 122.77344 148.49805 C 119.28686 148.49805 115.16491 146.69327 109.94727 142.12305 C 104.72962 137.55284 98.581163 130.33173 91.244141 120.2832 C 86.026879 113.13782 82.031827 105.4515 79.044922 97.884766 C 80.280362 95.57822 81.551558 93.360868 82.837891 91.302734 C 85.163088 87.58242 87.539906 84.042143 89.953125 80.703125 C 97.021896 80.654166 105.25705 81.088112 115.02148 82.234375 C 133.17314 84.365225 142.87527 88.812401 147.88477 92.837891 C 152.89426 96.863381 153.40039 100.48803 153.40039 101.61719 C 153.40039 103.32404 153.27543 104.35707 151.75391 106.09375 C 150.23239 107.83044 147.01267 110.14752 140.86523 112.87109 A 3.0048087 3.0048087 0 1 0 143.30078 118.36523 C 149.86612 115.45652 153.80825 112.86598 156.26953 110.05664 C 158.73081 107.2473 159.41016 104.09429 159.41016 101.61719 C 159.41016 98.562378 157.90538 93.178684 151.65039 88.152344 C 145.39539 83.126024 134.5829 78.481598 115.72266 76.267578 C 107.76479 75.333392 100.75493 74.879588 94.474609 74.763672 C 102.25766 65.091045 110.38386 57.836307 118.58789 54.515625 C 121.78617 53.221085 124.34449 52.596039 126.04883 52.568359 C 127.75318 52.540659 128.45254 52.864907 129.1875 53.716797 C 130.65742 55.420557 131.82925 61.278967 130.88477 71.904297 A 3.0043173 3.0043173 0 1 0 136.86914 72.433594 C 137.85572 61.334554 137.57682 54.242496 133.73633 49.791016 C 131.81608 47.565276 128.89539 46.510814 125.95312 46.558594 C 123.01086 46.606294 119.89439 47.506136 116.33398 48.947266 C 105.46322 53.347342 95.743387 62.761331 86.787109 74.789062 C 81.577616 74.948894 76.992758 75.379521 72.919922 75.996094 C 72.096405 71.097903 71.707031 66.614926 71.707031 62.837891 C 71.707031 56.012371 73.541177 53.320432 75.095703 52.044922 C 76.650227 50.769422 78.300904 50.714844 79.003906 50.714844 C 80.344125 50.714844 80.495222 50.507977 82.183594 51.091797 C 83.871966 51.675637 86.827565 53.192461 91.669922 56.863281 A 3.0051244 3.0051244 0 0 0 95.300781 52.074219 C 90.166022 48.181739 86.766662 46.318763 84.150391 45.414062 C 82.188187 44.735553 80.515498 44.676434 79.621094 44.689453 z M 82.410156 80.953125 C 80.83243 83.275754 79.276185 85.664745 77.742188 88.119141 C 77.286846 88.847687 76.83998 89.617303 76.390625 90.375 C 75.474549 87.456583 74.695475 84.588801 74.064453 81.816406 C 76.602311 81.440654 79.381662 81.148258 82.410156 80.953125 z M 100.16406 91.882812 A 7.241457 7.241457 0 0 0 92.921875 99.125 A 7.241457 7.241457 0 0 0 100.16406 106.36523 A 7.241457 7.241457 0 0 0 107.4043 99.125 A 7.241457 7.241457 0 0 0 100.16406 91.882812 z "
       transform="translate(0,852.36216)"
       id="path5379" />
    <path
       style="color:#000000;font-style:normal;font-variant:normal;font-weight:normal;font-stretch:normal;font-size:medium;line-height:normal;font-family:sans-serif;text-indent:0;text-align:start;text-decoration:none;text-decoration-line:none;text-decoration-style:solid;text-decoration-color:#000000;letter-spacing:normal;word-spacing:normal;text-transform:none;direction:ltr;block-progression:tb;writing-mode:lr-tb;baseline-shift:baseline;text-anchor:start;white-space:normal;clip-rule:nonzero;display:inline;overflow:visible;visibility:visible;opacity:0.198;isolation:auto;mix-blend-mode:normal;color-interpolation:sRGB;color-interpolation-filters:linearRGB;solid-color:#000000;solid-opacity:1;fill:#000000;fill-opacity:1;fill-rule:evenodd;stroke:none;stroke-width:3.29999995;stroke-linecap:round;stroke-linejoin:round;stroke-miterlimit:4;stroke-dasharray:none;stroke-dashoffset:0;stroke-opacity:1;color-rendering:auto;image-rendering:auto;shape-rendering:auto;text-rendering:auto;enable-background:accumulate"
       d="M 80.462891 49.976562 C 80.046543 49.955303 79.674016 50.007812 79.003906 50.007812 C 78.300904 50.007812 76.650227 50.062391 75.095703 51.337891 C 73.541177 52.613401 71.707031 55.305339 71.707031 62.130859 C 71.707031 62.261656 71.715861 62.408537 71.716797 62.541016 C 71.772797 55.949014 73.565505 53.30047 75.095703 52.044922 C 76.650227 50.769422 78.300904 50.714844 79.003906 50.714844 C 80.344125 50.714844 80.495222 50.507977 82.183594 51.091797 C 83.871966 51.675637 86.827565 53.192461 91.669922 56.863281 A 3.0051244 3.0051244 0 0 0 96.439453 54.101562 A 3.0051244 3.0051244 0 0 1 91.669922 56.15625 C 86.827565 52.48543 83.871966 50.968606 82.183594 50.384766 C 81.339408 50.092856 80.879239 49.997822 80.462891 49.976562 z M 126.04883 51.861328 C 124.34449 51.889008 121.78617 52.514054 118.58789 53.808594 C 110.38386 57.129274 102.25766 64.384011 94.474609 74.056641 C 94.661142 74.060083 94.862956 74.070176 95.050781 74.074219 C 102.65907 64.755676 110.58523 57.754799 118.58789 54.515625 C 121.78617 53.221085 124.34449 52.596039 126.04883 52.568359 C 127.75318 52.540659 128.45254 52.864907 129.1875 53.716797 C 130.26796 54.969145 131.17859 58.489602 131.21484 64.474609 C 131.24958 58.056047 130.30992 54.310749 129.1875 53.009766 C 128.45254 52.157876 127.75318 51.833628 126.04883 51.861328 z M 65.705078 62.441406 C 65.703681 62.575146 65.697266 62.702364 65.697266 62.837891 C 65.697266 66.829299 66.083264 71.441183 66.876953 76.412109 C 66.911778 76.404332 66.943601 76.396421 66.978516 76.388672 C 66.127849 71.276237 65.724196 66.54951 65.705078 62.441406 z M 137.33398 64.185547 C 137.28012 66.467374 137.11399 68.972022 136.86914 71.726562 A 3.0043173 3.0043173 0 0 1 130.88867 71.849609 C 130.88697 71.86889 130.88648 71.884984 130.88477 71.904297 A 3.0043173 3.0043173 0 1 0 136.86914 72.433594 C 137.14044 69.381524 137.30182 66.660039 137.33398 64.185547 z M 89.953125 79.996094 C 87.539906 83.335114 85.163088 86.875383 82.837891 90.595703 C 81.551558 92.653833 80.280362 94.871184 79.044922 97.177734 C 79.098252 97.312836 79.156963 97.44881 79.210938 97.583984 C 80.394539 95.387504 81.608649 93.269518 82.837891 91.302734 C 85.163088 87.582414 87.539906 84.042145 89.953125 80.703125 C 97.021896 80.654125 105.25705 81.088115 115.02148 82.234375 C 133.17314 84.365225 142.87527 88.812401 147.88477 92.837891 C 152.57549 96.607229 153.3093 99.997003 153.38477 101.34375 C 153.38789 101.19677 153.40039 101.06751 153.40039 100.91016 C 153.40039 99.780996 152.89426 96.156349 147.88477 92.130859 C 142.87527 88.105369 133.17314 83.658194 115.02148 81.527344 C 105.25705 80.381084 97.021896 79.947094 89.953125 79.996094 z M 82.410156 80.246094 C 79.381662 80.441224 76.602311 80.733625 74.064453 81.109375 C 74.11566 81.334351 74.183178 81.568714 74.236328 81.794922 C 76.584071 81.452055 79.148141 81.184116 81.912109 80.994141 C 82.078705 80.746691 82.243078 80.492056 82.410156 80.246094 z M 68.111328 82.224609 C 61.576602 83.706249 56.825747 85.718943 53.007812 87.658203 C 50.71165 88.824503 48.898383 90.154924 47.787109 91.458984 C 46.675834 92.763034 46.228827 93.913892 46.279297 95.289062 C 46.280759 95.328906 46.28839 95.373367 46.291016 95.414062 C 46.373737 94.286164 46.836306 93.281757 47.787109 92.166016 C 48.898383 90.861956 50.71165 89.531534 53.007812 88.365234 C 56.825747 86.425974 61.576602 84.413281 68.111328 82.931641 C 69.131951 87.495735 70.525603 92.278294 72.298828 97.138672 C 72.347957 97.041925 72.39407 96.942226 72.443359 96.845703 C 70.596863 91.842273 69.161036 86.918769 68.111328 82.224609 z M 116.57227 90.628906 A 3.0051942 3.0051942 0 0 0 117.2832 92.966797 C 119.57394 95.609967 122.86386 103.7978 125.13477 111.75586 C 127.40568 119.7139 129.00507 127.83981 129.27734 130.5625 C 129.34286 131.2177 129.38201 132.00654 129.39453 132.86719 C 129.39973 131.72732 129.36028 130.68483 129.27734 129.85547 C 129.00507 127.13278 127.40568 119.00687 125.13477 111.04883 C 122.86386 103.09077 119.57394 94.902936 117.2832 92.259766 A 3.0051942 3.0051942 0 0 1 116.57227 90.628906 z M 40.287109 95.632812 C 40.283304 95.827344 40.270126 96.020127 40.277344 96.216797 C 40.498256 102.23667 45.211094 108.07434 54.966797 114.57812 A 3.0050383 3.0050383 0 0 0 59.681641 111.75586 A 3.0050383 3.0050383 0 0 1 54.966797 113.87109 C 45.277647 107.41167 40.567409 101.60919 40.287109 95.632812 z M 92.935547 98.701172 A 7.241457 7.241457 0 0 0 92.921875 99.125 A 7.241457 7.241457 0 0 0 100.16406 106.36523 A 7.241457 7.241457 0 0 0 107.4043 99.125 A 7.241457 7.241457 0 0 0 107.39062 98.832031 A 7.241457 7.241457 0 0 1 100.16406 105.6582 A 7.241457 7.241457 0 0 1 92.935547 98.701172 z M 159.39453 101.36133 C 159.31574 103.76426 158.58607 106.70548 156.26953 109.34961 C 153.80825 112.15895 149.86612 114.74949 143.30078 117.6582 A 3.0048909 3.0048909 0 0 1 139.10156 115.26758 A 3.0048909 3.0048909 0 0 0 143.30078 118.36523 C 149.86612 115.45652 153.80825 112.86598 156.26953 110.05664 C 158.73081 107.2473 159.41016 104.09429 159.41016 101.61719 C 159.41016 101.53903 159.39656 101.44249 159.39453 101.36133 z M 75.501953 104.30078 C 72.945478 109.81873 70.701836 115.55295 69.085938 120.9082 C 67.5629 125.95571 66.59315 130.67202 66.363281 134.42578 C 66.324565 135.05802 66.318875 135.64656 66.326172 136.21484 C 66.33247 135.86238 66.340344 135.50737 66.363281 135.13281 C 66.59315 131.37905 67.5629 126.66274 69.085938 121.61523 C 70.701836 116.25998 72.945478 110.52576 75.501953 105.00781 C 78.383201 111.38042 81.96053 117.75815 86.392578 123.82812 C 93.860313 134.05566 100.18477 141.55751 105.99023 146.64258 C 111.79568 151.72764 117.24842 154.50781 122.77344 154.50781 C 125.84886 154.50781 128.55122 153.10054 130.36523 151.11914 C 132.17924 149.13774 133.27423 146.68262 134.02148 144.14648 C 135.14947 140.31815 135.48173 136.25376 135.42188 132.93359 C 135.42538 136.11652 135.07177 139.87484 134.02148 143.43945 C 133.27423 145.97559 132.17924 148.43071 130.36523 150.41211 C 128.55122 152.39351 125.84886 153.80078 122.77344 153.80078 C 117.24842 153.80078 111.79568 151.02053 105.99023 145.93555 C 100.18477 140.85048 93.860313 133.34863 86.392578 123.12109 C 81.96053 117.05111 78.383201 110.67339 75.501953 104.30078 z M 60.298828 136.31836 C 60.213426 140.14238 60.76067 143.54364 62.753906 146.21875 C 66.483495 151.22424 72.366589 152.44483 77.486328 151.11133 C 82.606066 149.77783 87.369543 146.42148 91.265625 142.52539 A 3.0052038 3.0052038 0 0 0 92.123047 140.0332 A 3.0052038 3.0052038 0 0 1 91.265625 141.81836 C 87.369543 145.71445 82.606066 149.0708 77.486328 150.4043 C 72.366589 151.7378 66.483495 150.51713 62.753906 145.51172 C 60.885323 143.0039 60.296149 139.85247 60.298828 136.31836 z "
       transform="translate(0,852.36216)"
       id="path5379-0" />
  </g>
</svg>
