<?xml version="1.0" encoding="UTF-8" standalone="no"?>
<!-- Created with Inkscape (http://www.inkscape.org/) -->

<svg
   xmlns:dc="http://purl.org/dc/elements/1.1/"
   xmlns:cc="http://creativecommons.org/ns#"
   xmlns:rdf="http://www.w3.org/1999/02/22-rdf-syntax-ns#"
   xmlns:svg="http://www.w3.org/2000/svg"
   xmlns="http://www.w3.org/2000/svg"
   xmlns:sodipodi="http://sodipodi.sourceforge.net/DTD/sodipodi-0.dtd"
   xmlns:inkscape="http://www.inkscape.org/namespaces/inkscape"
   width="200"
   height="200"
   viewBox="0 0 200 200"
   id="svg4258"
   version="1.1"
   inkscape:version="0.91 r13725"
   sodipodi:docname="firefox-beta.svg">
  <defs
     id="defs4260">
    <clipPath
       clipPathUnits="userSpaceOnUse"
       id="clipPath4278">
      <path
         sodipodi:nodetypes="ssssssccs"
         style="fill:#e1e1e1;fill-opacity:1;stroke:none"
         d="m 300,196 c -2.216,0 -4,1.784 -4,4 l 0,72 c 0,2.216 1.784,4 4,4 l 56,0 c 2.216,0 4,-1.784 4,-4 l 0,-52 -24,-24 z"
         id="path4280"
         inkscape:connector-curvature="0" />
    </clipPath>
    <filter
       inkscape:collect="always"
       style="color-interpolation-filters:sRGB"
       id="filter8385"
       x="-0.057188623"
       width="1.1143771"
       y="-0.063102081"
       height="1.1262043">
      <feGaussianBlur
         inkscape:collect="always"
         stdDeviation="4.0985205"
         id="feGaussianBlur8387" />
    </filter>
    <clipPath
       clipPathUnits="userSpaceOnUse"
       id="clipPath4088">
      <ellipse
         ry="15.671611"
         rx="17.318172"
         cy="253.67162"
         cx="180.31818"
         style="opacity:0.2;fill:#257db1;fill-opacity:1;stroke:none"
         id="path4090"
         transform="matrix(0.98162783,0,0,1.0847641,2.9946601,55.82614)" />
    </clipPath>
    <filter
       inkscape:collect="always"
       id="filter4384">
      <feGaussianBlur
         inkscape:collect="always"
         stdDeviation="4"
         id="feGaussianBlur4386" />
    </filter>
  </defs>
  <sodipodi:namedview
     id="base"
     pagecolor="#4e4e4e"
     bordercolor="#666666"
     borderopacity="1.0"
     inkscape:pageopacity="0"
     inkscape:pageshadow="2"
     inkscape:zoom="2.8284271"
     inkscape:cx="39.093546"
     inkscape:cy="121.78794"
     inkscape:document-units="px"
     inkscape:current-layer="g5494"
     showgrid="false"
     units="px"
     inkscape:window-width="1920"
     inkscape:window-height="1018"
     inkscape:window-x="1920"
     inkscape:window-y="29"
     inkscape:window-maximized="1" />
  <metadata
     id="metadata4263">
    <rdf:RDF>
      <cc:Work
         rdf:about="">
        <dc:format>image/svg+xml</dc:format>
        <dc:type
           rdf:resource="http://purl.org/dc/dcmitype/StillImage" />
        <dc:title />
      </cc:Work>
    </rdf:RDF>
  </metadata>
  <g
     inkscape:label="Layer 1"
     inkscape:groupmode="layer"
     id="layer1"
     transform="translate(0,-852.36216)">
    <g
       id="g5494">
      <rect
         ry="80"
         rx="80"
         y="-568"
         x="-268"
         height="160"
         width="160"
         id="rect4374"
         style="display:inline;opacity:0.5;fill:#000000;fill-opacity:1;stroke:none;filter:url(#filter4384);enable-background:new"
         transform="matrix(0,-1.0624688,-1.0624688,0,-419.405,751.1348)" />
      <rect
         transform="matrix(0,-1,-1,0,0,0)"
         style="display:inline;fill:#4aaae3;fill-opacity:1;stroke:none;enable-background:new"
         id="rect4337"
         width="169.99501"
         height="169.99501"
         x="-1033.7515"
         y="-184.0773"
         rx="84.997505"
         ry="84.997505" />
      <path
         id="rect4402"
         d="m 99.07978,863.75648 c -46.709508,0 -84.360658,37.3076 -84.9643,83.86864 1.159238,-46.06357 38.611441,-82.80616 84.9643,-82.80616 46.35286,0 83.80506,36.74259 84.9643,82.80616 -0.60364,-46.56104 -38.25479,-83.86864 -84.9643,-83.86864 z"
         style="display:inline;opacity:0.2;fill:#ffffff;fill-opacity:1;stroke:none;enable-background:new"
         inkscape:connector-curvature="0" />
      <path
         inkscape:connector-curvature="0"
         d="m 180,311 c -11.0457,0 -20,8.9543 -20,20 0,11.0457 8.9543,20 20,20 11.0457,0 20,-8.9543 20,-20 0,-11.0457 -8.9543,-20 -20,-20 z m 1.40625,2.57812 c 3.16582,0.25153 6.0486,1.33458 8.51562,3.04688 l -0.70312,-0.15625 -0.85938,-0.3125 -1.25,0.3125 -0.78125,0.54687 0,0.46875 -1.32812,0.85938 0.3125,1.25 0.70312,-0.54688 0.46875,0.54688 0.54688,0.3125 0.3125,-0.9375 -0.15625,-0.54688 0.15625,-0.39062 0.78125,-0.70313 0.3125,0 -0.3125,0.78125 0,0.70313 c 0.30745,-0.0855 0.62288,-0.11625 0.9375,-0.15625 l -0.85938,0.625 -0.078,0.39062 -1.01563,0.85938 -1.01562,-0.23425 0,-0.625 -0.46875,0.3125 0.23424,0.54688 -0.78125,0 -0.39062,0.70312 -0.46875,0.54688 -0.9375,0.15625 0.54687,0.54687 0.15625,0.54688 -0.70312,0 -0.85938,0.46875 0,1.40625 0.39063,0 0.39062,0.39062 0.85938,-0.39062 0.3125,-0.85938 0.625,-0.39062 0.078,-0.3125 1.01562,-0.23426 0.54688,0.625 0.625,0.3125 -0.39063,0.70313 0.54688,-0.15625 0.3125,-0.70313 -0.70313,-0.78125 0.3125,0 0.625,0.54688 0.15625,0.78125 0.54688,0.70312 0.15625,-1.01562 0.3125,-0.15625 c 0.33083,0.35042 0.58072,0.7775 0.85937,1.17187 l 1.09375,0.078 0.54688,0.39062 -0.23425,0.39063 -0.625,0.54687 -0.85938,0 -1.17187,-0.39062 -0.54688,0.078 -0.46875,0.46875 -1.25,-1.25 -0.85937,-0.23424 -1.25,0.15625 -1.17188,0.3125 c -0.63827,0.73832 -1.27087,1.49884 -1.875,2.26562 l -0.70312,1.79688 0.3125,0.3125 -0.625,0.9375 0.70312,1.64062 c 0.56898,0.6567 1.15063,1.29598 1.71875,1.95313 l 0.85938,-0.70313 0.3125,0.39063 0.9375,-0.54688 0.3125,0.3125 0.85937,0 0.54688,0.625 -0.3125,1.09375 0.625,0.70313 -0.078,1.25 0.54688,0.9375 -0.39063,0.78125 c -0.0333,0.56859 -0.078,1.15004 -0.078,1.71875 0.27422,0.77042 0.60042,1.48964 0.85937,2.26562 l 0.15625,1.25 0,0.625 0.46875,0 0.78125,-0.46875 0.85938,0 1.25,-1.48437 -0.15625,-0.54688 0.9375,-0.78125 -0.70313,-0.70312 0.78125,-0.625 0.78125,-0.46875 0.3125,-0.39063 -0.23425,-0.85937 0,-2.1875 0.625,-1.32813 0.70313,-0.78125 0.85937,-2.03125 0,-0.54687 c -0.40212,0.0517 -0.7784,0.12775 -1.17187,0.15625 l 0.78125,-0.85938 1.09375,-0.78125 0.625,-0.70312 0,-0.70313 c -0.134,-0.25773 -0.25578,-0.60165 -0.39063,-0.85937 l -0.54687,0.70312 -0.39063,-0.54687 -0.625,-0.46875 0,-0.9375 0.70313,0.78125 0.78125,-0.078 c 0.35052,0.32468 0.70817,0.56783 1.01562,0.9375 l 0.23425,-0.3125 c 0.12525,0.84468 0.23426,1.6986 0.23426,2.57813 0,9.66497 -7.83503,17.5 -17.5,17.5 -2.83571,0 -5.52166,-0.67775 -7.89063,-1.875 0.12875,-0.0997 0.3125,-0.23425 0.3125,-0.23425 l -0.15625,-0.3125 0.54688,-0.54688 0.15625,-0.54687 0.85937,-0.23425 0.625,-1.71875 -0.15625,-0.39063 0.39063,-0.70312 1.01562,-0.23425 0.46875,-1.17188 -0.078,-1.5625 0.78125,-1.09375 0.078,-1.09375 c -1.06607,-0.53937 -2.06685,-1.08525 -3.125,-1.64062 l -0.54687,-1.09375 -0.9375,-0.23425 -0.54688,-1.40625 -1.25,0.15625 -1.17187,-0.85938 -1.17188,1.09375 0,0.15625 c -0.35375,-0.10425 -0.77877,-0.115 -1.09375,-0.3125 l -0.23425,-0.78125 0,-0.78125 -0.78125,0.078 c 0.065,-0.5252 0.169,-1.11552 0.23425,-1.64062 l -0.46875,0 -0.46875,0.625 -0.46875,0.23425 -0.625,-0.39063 -0.078,-0.78125 0.078,-0.9375 1.01563,-0.70312 0.78125,0 0.15625,-0.46875 0.9375,0.23425 0.70312,0.85937 0.15625,-1.48437 1.25,-1.01563 0.39063,-1.17187 0.9375,-0.39063 0.54687,-0.70312 1.17188,-0.23425 0.54687,-0.9375 -1.71875,0 1.09375,-0.46875 0.78125,0 1.01563,-0.39063 0.15625,1.01563 0.46875,-0.70313 -0.54688,-0.39062 0.15625,-0.39063 -0.39062,-0.39062 -0.46875,-0.078 0.15625,-0.46875 -0.39063,-0.70313 -0.78125,0.3125 0.15625,-0.625 -0.9375,-0.54687 -0.70312,1.32812 0.078,0.39063 -0.70312,0.3125 -0.46875,1.01562 -0.15625,-0.9375 -1.25,-0.46875 -0.23425,-0.70312 1.64063,-0.9375 0.70312,-0.70313 0.078,-0.85937 -0.39063,-0.23425 -0.15625,0 c 0.56873,-0.39475 1.10373,-0.76748 1.71875,-1.09375 l 0,0.23425 -0.54687,0.46875 -0.39063,0.9375 0.78125,0 0.23425,-0.625 0.078,-0.15625 c 0.3143,-0.22675 0.61737,-0.48483 0.9375,-0.70313 l 0.78125,0.23425 c 0.48565,0.33665 0.9202,0.67948 1.40625,1.01563 l 0.78125,-0.70313 -0.85938,-0.3125 -0.3125,-0.78125 -1.40625,-0.15625 0,-0.078 0,-0.078 c 0.0225,-0.01 0.0555,0.01 0.078,0 l 0.46875,0.15625 0.39063,-0.39062 0.70312,-0.15625 c 0.1765,-0.0875 0.36868,-0.163 0.54688,-0.23425 l -0.46875,0.46875 1.64062,1.17187 0,0.70313 -0.625,0.70312 0.85938,1.71875 0.625,-0.3125 0.70312,-1.17187 c 1.04873,-0.33083 2.05705,-0.71433 3.04688,-1.17188 l -0.078,0.46875 0.46875,0.3125 0.85937,-0.625 -0.39062,-0.46875 -0.625,0.3125 -0.078,-0.078 0.85938,-2.34375 z m -9.53125,2.96875 0.70312,0.54688 0.625,0 0,-0.625 -0.70312,-0.3125 z m -2.34375,0.46875 -0.15625,0.39063 c 0,0 -0.25683,0.0372 -0.46875,0.078 0.202,-0.16675 0.41562,-0.31115 0.625,-0.46875 z m 21.09375,0.078 c 0.162,0.12451 0.31117,0.26058 0.46875,0.39063 l -0.625,0.70312 -0.85938,-0.9375 0.85938,0 z m -7.57813,1.01563 0,0.46875 0.3125,0.39062 0,0.70313 -0.15625,1.01562 0.78125,-0.15625 0.625,-0.54687 -0.54687,-0.54688 c -0.17125,-0.46554 -0.33243,-0.88159 -0.54688,-1.32812 z m -0.70312,1.01562 -0.46875,0.15625 0.078,0.9375 0.70312,-0.39062 z m 9.14062,8.35938 0.70313,0.85937 0.9375,1.95313 0.54687,0.625 -0.3125,0.70312 0.54688,0.625 c -0.22825,0.015 -0.46857,0 -0.70313,0 -0.42609,-0.91357 -0.76927,-1.85674 -1.09375,-2.8125 l -0.54687,-0.625 -0.3125,-1.17187 z m -28.90625,2.26562 c 0.10425,0.25106 0.54688,1.01563 0.54688,1.01563 l 1.32812,0.78125 1.40625,0.39062 0.54688,0.78125 0.9375,0.70313 0.46875,-0.15625 0.39062,0.23425 0,0.078 -0.46875,1.48438 -0.39062,0.54687 0.078,0.3125 -0.3125,1.17188 1.17187,2.10937 1.17188,1.09375 0.54687,0.70313 -0.078,1.64062 0.39063,0.85938 -0.39063,1.71875 c 0,0 0.005,0.0595 0,0.078 C 165.44915,342.12622 162.5,336.899 162.5,330.9995 c 0,-0.42057 0.049,-0.83685 0.078,-1.25 z"
         id="path4096"
         style="color:#bebebe;display:inline;overflow:visible;visibility:visible;opacity:0.2;fill:#000000;fill-opacity:1;fill-rule:nonzero;stroke:none;stroke-width:1;marker:none;enable-background:accumulate"
         clip-path="url(#clipPath4088)"
         transform="matrix(-4.9998531,0,0,4.9998531,999.05334,-706.19747)" />
      <path
         transform="matrix(1.0624688,0,0,1.0624688,-6.6259943,-59.414514)"
         id="path4204"
         d="m 115.26789,1032.6892 c 40.92493,-6.6058 72.2233,-41.99988 72.2233,-84.78995 l -0.78473,0.97287 c 1.22546,-8.13232 1.01046,-15.37776 -0.67186,-21.69872 -0.60202,4.68159 -1.25773,7.50884 -1.91887,8.64298 -0.006,-0.36524 -0.0969,-5.24596 -1.65016,-12.05606 -0.73634,-4.96646 -1.81672,-9.63726 -3.31095,-13.95336 0.36523,1.978 0.5805,3.62808 0.688,5.12231 -6.24567,-16.75915 -21.62348,-37.39361 -59.51156,-36.90984 0,0 13.32453,1.40823 19.59713,10.90577 0,0 -6.41233,-1.53185 -11.26052,0.81704 5.90706,2.35421 11.02938,4.81592 15.3885,7.38515 l 0.37611,0.23107 c 1.11804,0.67189 2.06938,1.35987 3.07986,2.04248 8.05167,5.65446 15.52288,13.72229 14.95317,24.12821 -1.73616,-2.74121 -4.04739,-4.53648 -7.009,-5.43946 3.64963,14.29739 4.00975,26.10614 1.0589,35.42096 -2.02638,-6.20267 -3.89148,-9.92215 -5.55236,-11.23363 2.31663,19.16709 -0.80623,33.34086 -9.34705,42.58041 1.62322,-5.63836 2.26825,-10.25542 1.90272,-13.89967 -10.03505,15.16811 -21.45141,23.01019 -34.24921,23.49392 -5.05783,-0.0401 -9.836153,-0.80624 -14.329653,-2.28971 -6.60042,-2.23062 -12.57198,-6.04144 -17.88784,-11.44863 8.2989,0.69334 15.87763,-0.74716 22.54795,-4.14952 l 10.927313,-7.1594 -0.0401,-0.0344 c 1.419,-0.53722 2.75194,-0.49422 4.05271,0.11298 2.66598,-0.36525 3.60125,-1.79522 2.70898,-4.20861 -1.29,-1.79521 -3.2411,-3.42382 -5.74583,-4.85892 -5.46636,-2.85415 -11.17453,-2.40265 -17.130013,1.39744 -5.67056,3.22504 -11.12613,3.09604 -16.43659,-0.33311 -3.4776,-2.40259 -6.83694,-5.63834 -10.08344,-9.68032 l -1.28998,-1.9081 c -0.60735,4.57952 0.0805,10.45431 2.13925,17.68902 l 0.043,0.0969 -0.043,-0.086 c -2.064,-7.23467 -2.7466,-13.12563 -2.13925,-17.69976 l 0,-0.0459 c 0.15597,-3.99896 1.81136,-6.20267 4.96646,-6.69721 l -1.33837,-0.11297 1.34912,0.11297 c 3.56361,0.32797 7.65398,1.14493 12.26565,2.48862 0.774,-4.45044 -0.24195,-9.11052 -3.03148,-13.88888 l 0,-0.086 c 4.33221,-4.04196 8.1753,-6.98202 11.45942,-8.8579 1.45661,-0.77941 2.30584,-1.96187 2.58534,-3.55825 l 0.11805,-0.086 0.0401,-0.0401 0.16106,-0.15597 c 0.84923,-1.26854 0.56416,-2.28979 -0.88688,-3.19275 -3.03687,0.16692 -6.07907,-0.0401 -9.1106,-0.65041 l -0.0401,0.12392 c -1.25234,-0.36582 -2.83255,-1.47815 -4.77832,-3.35936 l -4.98256,-4.90202 -1.49425,-1.17708 0,0.15597 -0.043,0 0.043,-0.19895 -0.28496,-0.29584 0.40311,-0.28496 c 0.68802,-3.71408 1.82212,-6.90683 3.44,-9.64804 l 0.3655,-0.32796 c 1.62325,-2.69823 4.73531,-5.59533 9.3094,-8.69131 -8.50317,1.05887 -16.19472,4.89117 -23.03166,11.51852 -5.67058,-2.08014 -12.38929,-1.63937 -20.12386,1.34371 l -0.92985,0.7095 -0.07,0.0401 1.0105,-0.74173 0.043,-0.0401 c -4.86433,-2.236 -8.14304,-8.65904 -9.72331,-19.15632 -6.19194,6.1328 -9.191147,17.08161 -8.9923,32.88933 l -1.773727,2.68214 -0.45683,0.31189 -0.0915,0.086 -0.0379,0.0401 -0.086,0.17728 c -0.94061,1.47269 -2.23599,3.69796 -3.86997,6.68642 -2.34885,4.22471 -3.13898,7.77217 -3.37012,10.86281 l -0.0201,0.0401 0.0117,0.10203 -0.0755,0.8116 0.13447,-0.215 c 0.0176,0.7149 0.0321,1.43517 0.215,2.08011 l 5.02021,-4.12792 c -1.8221,4.61702 -3.03148,9.51365 -3.64423,14.70588 l -0.14502,2.37571 -1.57486,-1.80059 c 0,18.42536 5.84796,35.45858 15.716357,49.45492 l 0.29563,0.46216 0.473,0.56416 c 7.09494,9.74483 16.15713,17.94163 26.64907,23.99383 7.54104,4.4666 15.64646,7.5949 24.28942,9.4546 l 1.77911,0.3979 c 1.78987,0.344 3.62275,0.602 5.46094,0.8331 1.35988,0.1771 2.71973,0.3492 4.09577,0.4679 l 1.82748,0.2098 2.59605,0.018 2.821913,0.1399 2.24671,-0.1129 3.70336,-0.183 c 2.19831,-0.1509 4.36446,-0.3921 6.51444,-0.7041 l 1.30612,-0.1933 z m -50.572963,-90.03052 0,0 z m 104.956733,-14.73278 -0.0401,0.70415 0.0287,-0.70954 0.0117,0.006 z"
         inkscape:connector-curvature="0"
         style="display:inline;opacity:0.35;fill:#000000;fill-opacity:1;filter:url(#filter8385);enable-background:new" />
      <path
         style="display:inline;fill:#434343;enable-background:new;fill-opacity:1"
         inkscape:connector-curvature="0"
         d="m 115.84254,1036.723 c 43.48147,-7.0185 76.73501,-44.62348 76.73501,-90.08659 l -0.83375,1.03364 c 1.30201,-8.64033 1.07358,-16.33839 -0.71384,-23.05421 -0.63962,4.97404 -1.3363,7.97791 -2.03874,9.18289 -0.006,-0.38805 -0.10295,-5.57366 -1.75323,-12.80918 -0.78235,-5.27671 -1.93021,-10.23929 -3.51779,-14.82501 0.38804,2.10156 0.61676,3.85472 0.73098,5.44229 -6.63583,-17.80607 -22.97427,-39.72955 -63.22918,-39.21555 0,0 14.1569,1.4962 20.82134,11.58704 0,0 -6.8129,-1.62754 -11.96395,0.86808 6.27607,2.50127 11.71838,5.11676 16.3498,7.84649 l 0.39961,0.2455 c 1.18788,0.71387 2.19865,1.44483 3.27225,2.17008 8.55465,6.00769 16.49258,14.5795 15.88728,25.63547 -1.84462,-2.91246 -4.30022,-4.81987 -7.44685,-5.77926 3.87763,15.19054 4.26024,27.73696 1.12505,37.63367 -2.15296,-6.59015 -4.13457,-10.54198 -5.8992,-11.93538 2.46134,20.36443 -0.8566,35.42362 -9.93095,45.24035 1.72462,-5.99058 2.40994,-10.89606 2.02158,-14.76796 -10.66193,16.11564 -22.79146,24.44761 -36.38872,24.96155 -5.37379,-0.0426 -10.450605,-0.85661 -15.224809,-2.43274 -7.01274,-2.36997 -13.357337,-6.41885 -19.005272,-12.16382 8.817322,0.73666 16.869486,-0.79383 23.956493,-4.40873 l 11.609938,-7.60664 -0.0426,-0.0365 c 1.50764,-0.57078 2.92385,-0.52509 4.30588,0.12004 2.83252,-0.38807 3.82621,-1.90736 2.87821,-4.47152 -1.3706,-1.90735 -3.44358,-3.6377 -6.10478,-5.16245 -5.80783,-3.03245 -11.872582,-2.55274 -18.200098,1.48474 -6.024793,3.4265 -11.821166,3.28945 -17.463364,-0.35392 -3.694842,-2.55268 -7.264036,-5.99056 -10.713341,-10.28504 l -1.370563,-2.0273 c -0.64529,4.8656 0.08553,11.10738 2.272887,18.79404 l 0.04569,0.10295 -0.04569,-0.0913 c -2.192927,-7.68666 -2.918167,-13.94563 -2.272877,-18.80549 l 0,-0.0488 c 0.165713,-4.24877 1.924513,-6.59014 5.276709,-7.11558 l -1.421977,-0.12002 1.433398,0.12002 c 3.786225,0.34846 8.132115,1.21645 13.03187,2.64409 0.822351,-4.72846 -0.257063,-9.67965 -3.220853,-14.75651 l 0,-0.0914 c 4.602838,-4.29446 8.686002,-7.41818 12.175277,-9.41124 1.547602,-0.82811 2.449883,-2.08443 2.746843,-3.78054 l 0.125424,-0.0914 0.0426,-0.0426 0.171121,-0.16571 c 0.902281,-1.34779 0.599404,-2.43283 -0.942282,-3.3922 -3.226579,0.17735 -6.458822,-0.0426 -9.679728,-0.69104 l -0.04261,0.13166 c -1.330572,-0.38867 -3.009496,-1.57049 -5.076816,-3.56922 l -5.293814,-5.20824 -1.587594,-1.2506 0,0.1657 -0.04569,0 0.04569,-0.21137 -0.302761,-0.31433 0.428291,-0.30276 c 0.731,-3.94609 1.935946,-7.33829 3.654893,-10.25074 l 0.388332,-0.34844 c 1.724653,-2.86679 5.031119,-5.94487 9.890948,-9.23425 -9.034354,1.12501 -17.206385,5.19671 -24.470421,12.23807 C 55.39698,891.4457 48.25856,891.914 40.04082,895.08343 l -0.987936,0.75382 -0.07437,0.0426 1.073625,-0.78806 0.04569,-0.0426 c -5.168199,-2.37569 -8.651726,-9.19996 -10.330714,-20.353 -6.578743,6.51591 -9.765306,18.14868 -9.554038,34.94389 l -1.88453,2.84969 -0.485367,0.33137 -0.09722,0.0914 -0.04027,0.0426 -0.09137,0.18835 c -0.999369,1.56469 -2.37567,3.92897 -4.111723,7.10412 -2.49558,4.48862 -3.335068,8.25769 -3.5806471,11.54139 l -0.021353,0.0426 0.012431,0.1084 -0.080212,0.8623 0.1428702,-0.22843 c 0.018697,0.75956 0.034108,1.52483 0.2284309,2.21006 l 5.333816,-4.3858 c -1.935923,4.90544 -3.220852,10.10796 -3.87188,15.62455 l -0.15408,2.52411 -1.6732388,-1.91307 c 0,19.57637 6.2132758,37.67363 16.6981388,52.54432 l 0.314098,0.49103 0.502548,0.59943 c 7.538152,10.3535 17.166446,19.0624 28.313805,25.4926 8.01212,4.7457 16.623876,8.0695 25.806751,10.0453 l 1.890249,0.4228 c 1.901681,0.3654 3.849059,0.6396 5.802079,0.8851 1.44483,0.1881 2.889628,0.3711 4.351627,0.4971 l 1.941642,0.2229 2.758222,0.019 2.998186,0.1487 2.38707,-0.12 3.9347,-0.1944 c 2.33563,-0.1603 4.6371,-0.4166 6.92139,-0.748 l 1.38771,-0.2055 z m -53.732191,-95.65453 0,0 z m 111.513251,-15.65312 -0.0426,0.74813 0.0305,-0.75386 0.0125,0.006 z"
         id="path4192" />
      <path
         id="path4194"
         d="m 121.22561,872.38905 c 0,0 2.23484,0.24496 5.34556,1.16207 36.35592,1.4144 51.53889,22.12015 57.87134,39.11213 -0.0323,-0.44962 -0.11428,-0.94734 -0.16601,-1.42768 -6.72322,-17.73877 -23.07225,-39.35699 -63.05089,-38.84652 z M 29.753689,874.68 c -6.309045,6.24879 -9.464471,17.23567 -9.529017,32.93653 0.200095,-15.1407 3.36145,-25.7654 9.529017,-31.87406 1.678988,11.15303 5.190873,17.97724 10.359071,20.35291 l -0.0664,0.0664 c 8.21774,-3.16942 15.35737,-3.63777 21.382185,-1.42768 6.7559,-6.54879 14.287485,-10.55614 22.577463,-11.98598 0.601059,-0.43769 1.234418,-0.88265 1.892522,-1.32809 -9.034353,1.12502 -17.20595,5.21024 -24.469985,12.2516 -6.024815,-2.21009 -13.164445,-1.74174 -21.382185,1.42769 l 0.0664,-0.0664 C 34.944562,892.65723 31.432677,885.83303 29.753689,874.68 Z m 106.379691,8.79857 c -1.95213,0.0795 -4.11115,0.42543 -6.04279,1.36128 0.44573,0.17765 0.85755,0.35245 1.29489,0.53124 4.92312,-1.69763 10.65788,-0.33202 10.65788,-0.33202 -0.2793,-0.4229 -0.55923,-0.83525 -0.86326,-1.22848 -0.99685,-0.17881 -2.79108,-0.42387 -5.04672,-0.33202 z m -64.113353,18.56 c -0.01732,0.0899 -0.04962,0.17514 -0.0664,0.26561 l -0.431628,0.29883 0.298819,0.33202 0,0.0331 1.593704,1.26169 5.312344,5.21273 c 2.067319,1.99873 3.749356,3.16396 5.079929,3.55263 l 0.03315,-0.1328 c 3.220905,0.64843 6.435246,0.87459 9.661825,0.69724 0.727132,0.45249 1.181773,0.93812 1.361289,1.4609 0.281203,-0.96082 -0.164046,-1.77835 -1.361289,-2.52337 -3.226579,0.17735 -6.44092,-0.0488 -9.661825,-0.69724 l -0.03315,0.13281 c -1.330573,-0.38868 -3.01261,-1.55391 -5.079929,-3.55263 l -5.312344,-5.21274 -1.394491,-1.12888 z m -0.199213,0.92966 -0.03314,0.16601 0.03314,0 0,-0.16601 z m 111.891246,3.18741 c 0.1389,0.75221 0.2319,1.4204 0.33202,2.09173 1.41219,4.30106 2.4623,8.92139 3.18741,13.8121 1.65029,7.23551 1.75334,12.42797 1.75971,12.81602 0.70244,-1.20499 1.38571,-4.22294 2.02534,-9.19699 0.8937,3.35791 1.40951,6.94667 1.5273,10.7907 -0.0527,-4.2366 -0.55327,-8.19347 -1.5273,-11.85317 -0.63963,4.97404 -1.3229,7.99201 -2.02534,9.197 -0.006,-0.38806 -0.10942,-5.58051 -1.75971,-12.81603 -0.78234,-5.27671 -1.93185,-10.25564 -3.51943,-14.84136 z m -163.487388,3.48622 -1.892519,2.85538 -0.498032,0.33202 -0.09956,0.0996 -0.03315,0.0332 -0.09956,0.16601 c -0.999368,1.56469 -2.347812,3.93011 -4.083864,7.10526 -2.495581,4.48862 -3.340254,8.27064 -3.5858329,11.55434 l -0.033145,0.0332 0,0.1328 -0.066615,0.86326 0.132809,-0.19921 c 0.2673059,-3.22978 1.1148059,-6.93719 3.5526309,-11.32193 1.736052,-3.17515 3.084495,-5.54057 4.083864,-7.10526 l 0.09956,-0.16601 0.03314,-0.0664 0.09956,-0.0664 0.498191,-0.33202 1.892519,-2.85538 c -0.0043,-0.36118 10e-4,-0.70605 0,-1.06246 z m 138.320158,5.31235 c 0.1,0.39185 0.20344,0.77373 0.29882,1.16207 2.99927,0.9882 5.3545,2.86089 7.13846,5.67757 0.0409,-0.74801 0.068,-1.4661 0.0332,-2.19134 -6.8e-4,0.37919 -0.0122,0.74364 -0.0332,1.12887 -1.84461,-2.91245 -4.29066,-4.81779 -7.43728,-5.77717 z m -78.987915,15.17338 c -0.125052,0.11564 -0.239395,0.21461 -0.365223,0.33202 l 0,0.0664 c 2.18264,3.73877 3.354468,7.42621 3.486225,10.9899 0.07735,-3.68786 -0.973805,-7.50398 -3.121002,-11.38833 z m -64.013743,1.32809 -0.564436,0.46482 c -1.617896,4.45748 -2.73591,9.15976 -3.320215,14.11092 l -0.132809,2.52336 -1.69331,-1.92573 c 0,0.36715 0.028897,0.72959 0.033145,1.09568 l 1.660107,1.89252 0.132808,-2.52336 c 0.651028,-5.51659 1.948728,-10.73277 3.884652,-15.63821 z m 146.222268,6.97244 c -0.0539,5.21071 -0.74887,9.93841 -2.09174,14.17732 -2.15296,-6.59014 -4.14534,-10.55937 -5.90997,-11.95277 0.0491,0.4057 0.0884,0.79379 0.1328,1.19528 1.73107,1.48334 3.67803,5.39458 5.77717,11.81997 1.43323,-4.52418 2.12662,-9.60871 2.09174,-15.2398 z m 30.81159,8.20093 -0.66404,0.83006 c -0.057,0.42324 -0.10157,0.83382 -0.16601,1.26168 l 0.79686,-0.99606 c 0.004,-0.36531 0.0332,-0.72933 0.0332,-1.09568 z M 64.151118,948.8536 c -0.03029,0.29687 -0.05397,0.57822 -0.0664,0.89646 l 0,0.0664 1.394489,2.02534 c 3.449306,4.29448 6.996252,7.73999 10.691093,10.29266 5.642198,3.64336 11.439538,3.75852 17.464331,0.33202 6.327517,-4.03748 12.386949,-4.49334 18.194789,-1.46089 2.66119,1.52475 4.73861,3.23897 6.10919,5.14633 0.15315,0.41422 0.24659,0.80276 0.29882,1.16208 0.11468,-0.62146 0.019,-1.36506 -0.29882,-2.22454 -1.37058,-1.90736 -3.448,-3.62159 -6.10919,-5.14634 -5.80784,-3.03245 -11.867272,-2.57659 -18.194789,1.46089 -6.024793,3.42651 -11.822133,3.31135 -17.464331,-0.33202 -3.694841,-2.55268 -7.241787,-5.99819 -10.691093,-10.29267 l -1.328085,-1.92572 z m 90.376252,6.07599 c -0.31311,12.99443 -3.74284,23.1521 -10.25946,30.47957 -0.13714,0.51659 -0.27797,1.02674 -0.43163,1.56051 6.9837,-7.55503 10.53684,-18.24624 10.69109,-32.04008 z m -90.575465,0.92966 c 0.09902,1.4783 0.287982,3.05973 0.564436,4.71471 -0.276571,-1.65317 -0.464915,-3.23786 -0.564436,-4.71471 z m 0.564436,4.71471 c 0.274839,1.64529 0.642518,3.39197 1.095671,5.21273 -0.456118,-1.83162 -0.8191,-3.55956 -1.095671,-5.21273 z m 81.345269,10.55829 c -10.66193,16.11564 -22.7923,24.45407 -36.38956,24.96801 -5.37378,-0.0426 -10.465581,-0.84762 -15.239784,-2.42375 -6.540208,-2.21028 -12.474744,-5.91155 -17.829555,-11.05632 -0.39068,-0.0239 -0.768325,-0.0335 -1.162076,-0.0664 5.647936,5.74497 11.978891,9.81523 18.991631,12.18519 4.774203,1.57615 9.866004,2.38115 15.239784,2.42376 13.59726,-0.51395 25.72763,-8.85237 36.38956,-24.96802 0.0486,0.48399 0.0846,0.97771 0.0996,1.4941 0.012,-0.89683 -0.0187,-1.74992 -0.0996,-2.55656 z"
         style="display:inline;opacity:0.2;fill:#ffffff;fill-opacity:1;enable-background:new"
         inkscape:connector-curvature="0" />
      <path
         inkscape:connector-curvature="0"
         id="path4199"
         d="m 121.22561,873.45152 c 0,0 13.00411,1.36938 19.95449,10.35907 0.44102,0.0791 0.86326,0.166 0.86326,0.166 -4.01712,-6.08243 -10.75191,-9.03382 -15.47219,-10.42547 -1.7418,-0.0678 -3.50513,-0.12311 -5.34556,-0.0996 z m -35.327084,9.03099 c -0.631967,0.0787 -1.269002,0.15807 -1.892522,0.26561 -3.837543,2.79446 -6.510618,5.42353 -8.001719,7.90211 l -0.398426,0.36523 c -1.718947,2.91244 -2.921237,6.28017 -3.652236,10.22626 l -0.431628,0.29882 0.298819,0.33202 0,0.0332 0.199213,0.1328 c 0.735494,-3.83082 1.906303,-7.11497 3.585832,-9.96064 l 0.398426,-0.36522 c 1.724652,-2.86679 5.034413,-5.94082 9.894241,-9.23021 z m -14.077712,19.42325 -0.03314,0.16601 0.03314,0 0,-0.16601 z m 59.564666,-16.53467 c -0.44531,0.15355 -0.86762,0.32422 -1.29489,0.53123 6.27607,2.50127 11.70403,5.13918 16.33546,7.86891 l 0.39842,0.23241 c 1.18789,0.71387 2.21341,1.43289 3.28702,2.15814 7.97587,5.60124 15.4242,13.44651 15.90383,23.44073 0.019,-10.50357 -7.64726,-18.70483 -15.90383,-24.50319 -1.07361,-0.72525 -2.09913,-1.44428 -3.28702,-2.15814 l -0.39842,-0.23242 c -4.3025,-2.53586 -9.32016,-4.99896 -15.04057,-7.33767 z m 52.32658,21.84701 c 0.27814,1.50636 0.43351,2.80178 0.56444,4.01747 0.0464,0.12257 0.12047,0.24301 0.16601,0.36522 -0.0733,-1.01933 -0.21881,-2.14917 -0.39843,-3.35342 -0.11145,-0.33947 -0.21588,-0.69381 -0.33202,-1.02927 z m -88.848954,7.80251 c -0.08085,0.27642 -0.196843,0.56214 -0.398426,0.86325 l -0.16601,0.16601 -0.0664,0.0664 -0.09956,0.0664 c -0.29696,1.6961 -1.208176,2.95694 -2.755778,3.78504 -3.489275,1.99306 -7.582351,5.13495 -12.18519,9.42941 l 0,0.0664 c 0.12857,0.22023 0.243742,0.44428 0.365224,0.66404 4.449322,-4.11483 8.426079,-7.15881 11.819966,-9.0974 1.547602,-0.82809 2.458818,-2.08894 2.755778,-3.78504 l 0.09956,-0.0664 0.0664,-0.0664 0.16601,-0.16601 c 0.47672,-0.7121 0.59952,-1.3401 0.398426,-1.92573 z m 63.681724,0.99607 c 1.93881,7.59525 2.99895,14.54523 3.18741,20.81775 -0.0888,-6.23124 -1.02971,-13.1494 -2.88859,-20.71815 -0.102,-0.0336 -0.19534,-0.0681 -0.29882,-0.0996 z m -143.001658,14.37652 -5.345546,4.38268 c -0.191478,-0.67518 -0.2140447,-1.40955 -0.232415,-2.15813 -0.00639,0.0765 -0.027518,0.15642 -0.033145,0.23242 l -0.033145,0.0331 0,0.13282 -0.066514,0.8633 0.132809,-0.23242 c 0.018697,0.75956 0.038032,1.50612 0.232415,2.19135 l 4.781109,-3.91786 c 0.184763,-0.50903 0.36601,-1.02451 0.564436,-1.5273 z m 177.033858,8.20093 c -0.0657,2.90364 -0.35428,5.90698 -0.83005,9.06419 l 0.16601,-0.19921 c 0.41481,-3.08192 0.64892,-6.03048 0.66404,-8.86498 z m -109.899113,2.92179 c -0.01912,0.91303 -0.109508,1.82496 -0.265617,2.72258 -4.899756,-1.42762 -9.229018,-2.30771 -13.015243,-2.65617 l -0.03315,0 c -3.352195,0.52543 -5.113429,2.85649 -5.279142,7.10526 l 0,0.0664 0.0664,0.0996 c 0.376827,-3.65857 2.115259,-5.7233 5.212738,-6.20881 l 0.03314,0 c 3.786225,0.34846 8.115487,1.22855 13.015243,2.65617 0.216744,-1.24625 0.312769,-2.50962 0.265617,-3.78504 z m 71.085813,0.19922 c 0.46149,3.81833 0.70834,7.44458 0.76364,10.8903 -0.0129,-3.4011 -0.21321,-6.98511 -0.63084,-10.75749 -0.0444,-0.038 -0.0887,-0.0979 -0.1328,-0.13281 z M 9.832402,947.69153 c 0,19.57637 6.215815,37.68832 16.700679,52.55897 l 0.332022,0.4648 0.498032,0.6309 c 7.538153,10.3535 17.140873,19.0358 28.288232,25.466 8.012119,4.7456 16.648398,8.0844 25.831273,10.0602 l 1.892523,0.4317 c 1.90168,0.3655 3.824154,0.6176 5.777174,0.8632 1.44483,0.1882 2.887482,0.372 4.349482,0.4981 l 1.958926,0.2323 2.755779,0.034 2.988196,0.1329 2.39055,-0.1328 3.95106,-0.1661 c 2.33564,-0.1603 4.62176,-0.4322 6.90605,-0.7636 l 1.39449,-0.1992 0,-0.034 c 43.48146,-7.0184 76.73016,-44.61426 76.73016,-90.07737 l -0.0332,0.0331 c -0.53011,44.9697 -33.56588,82.01977 -76.69697,88.98187 l 0,0.033 -1.39449,0.1991 c -2.28428,0.3315 -4.57041,0.6033 -6.90605,0.7636 l -3.95111,0.1662 -2.39055,0.1328 -2.988196,-0.1328 -2.755779,-0.033 -1.958926,-0.2324 c -1.462,-0.1262 -2.904653,-0.31 -4.349483,-0.4982 -1.953019,-0.2454 -3.875493,-0.4977 -5.777173,-0.8632 L 81.48258,1035.81 c -9.182875,-1.9759 -17.819154,-5.3146 -25.831273,-10.0603 -11.147349,-6.4302 -20.750069,-15.1125 -28.288222,-25.466 l -0.498032,-0.6309 -0.332022,-0.46479 C 16.244848,984.59627 10.09361,966.87891 9.865604,947.72473 l -0.033145,-0.0331 z m 54.119503,7.10526 c 0.09902,1.47829 0.287982,3.05972 0.564436,4.7147 -0.276571,-1.65316 -0.464915,-3.23785 -0.564436,-4.7147 z m 0.564436,4.7147 c 0.274839,1.64529 0.642518,3.39196 1.095671,5.21274 -0.456118,-1.83163 -0.8191,-3.55957 -1.095671,-5.21274 z m 53.721079,7.80251 c -0.22744,1.23255 -1.27112,1.99975 -3.15421,2.25775 -1.38202,-0.64513 -2.80863,-0.7036 -4.31628,-0.13282 l 0.0332,0.0332 -11.620757,7.60329 c -7.087007,3.6149 -15.121429,5.15253 -23.93875,4.41588 0.380565,0.38711 0.775187,0.75717 1.162074,1.12887 8.3579,0.51067 16.006146,-1.02882 22.776676,-4.48229 l 11.620807,-7.60324 -0.0332,-0.0332 c 1.50764,-0.57077 2.93425,-0.51232 4.31628,0.13282 2.37496,-0.32539 3.42534,-1.45521 3.1542,-3.32022 z m 27.7238,6.90605 c -0.10976,3.29392 -0.83148,7.19421 -2.12494,11.68715 0.14977,-0.16202 0.285,-0.33316 0.43163,-0.49804 1.14547,-4.31476 1.71669,-8.05005 1.69331,-11.18911 z"
         style="display:inline;opacity:0.2;fill:#000000;fill-opacity:1;enable-background:new" />
    </g>
  </g>
</svg>
