<?xml version="1.0" encoding="UTF-8" standalone="no"?>
<!-- Created with Inkscape (http://www.inkscape.org/) -->

<svg
   xmlns:dc="http://purl.org/dc/elements/1.1/"
   xmlns:cc="http://creativecommons.org/ns#"
   xmlns:rdf="http://www.w3.org/1999/02/22-rdf-syntax-ns#"
   xmlns:svg="http://www.w3.org/2000/svg"
   xmlns="http://www.w3.org/2000/svg"
   xmlns:sodipodi="http://sodipodi.sourceforge.net/DTD/sodipodi-0.dtd"
   xmlns:inkscape="http://www.inkscape.org/namespaces/inkscape"
   width="200"
   height="200"
   viewBox="0 0 200 200"
   id="svg4258"
   version="1.1"
   inkscape:version="0.91 r13725"
   sodipodi:docname="help.svg">
  <defs
     id="defs4260">
    <clipPath
       clipPathUnits="userSpaceOnUse"
       id="clipPath4278">
      <path
         sodipodi:nodetypes="ssssssccs"
         style="fill:#e1e1e1;fill-opacity:1;stroke:none"
         d="m 300,196 c -2.216,0 -4,1.784 -4,4 l 0,72 c 0,2.216 1.784,4 4,4 l 56,0 c 2.216,0 4,-1.784 4,-4 l 0,-52 -24,-24 z"
         id="path4280"
         inkscape:connector-curvature="0" />
    </clipPath>
    <clipPath
       clipPathUnits="userSpaceOnUse"
       id="clipPath4088">
      <ellipse
         ry="15.671611"
         rx="17.318172"
         cy="253.67162"
         cx="180.31818"
         style="opacity:0.2;fill:#257db1;fill-opacity:1;stroke:none"
         id="path4090"
         transform="matrix(0.98162783,0,0,1.0847641,2.9946601,55.82614)" />
    </clipPath>
    <filter
       inkscape:collect="always"
       style="color-interpolation-filters:sRGB"
       id="filter4711"
       x="-0.24875277"
       width="1.4975055"
       y="-0.079072565"
       height="1.1581451">
      <feGaussianBlur
         inkscape:collect="always"
         stdDeviation="5.8042378"
         id="feGaussianBlur4713" />
    </filter>
    <filter
       inkscape:collect="always"
       style="color-interpolation-filters:sRGB"
       id="filter4456"
       x="-0.067524619"
       width="1.1350492"
       y="-0.053984255"
       height="1.1079684">
      <feGaussianBlur
         inkscape:collect="always"
         stdDeviation="3.5989503"
         id="feGaussianBlur4458" />
    </filter>
  </defs>
  <sodipodi:namedview
     id="base"
     pagecolor="#4e4e4e"
     bordercolor="#666666"
     borderopacity="1.0"
     inkscape:pageopacity="0"
     inkscape:pageshadow="2"
     inkscape:zoom="2.8284271"
     inkscape:cx="79.476825"
     inkscape:cy="94.089905"
     inkscape:document-units="px"
     inkscape:current-layer="g5494"
     showgrid="false"
     units="px"
     inkscape:window-width="1920"
     inkscape:window-height="1047"
     inkscape:window-x="0"
     inkscape:window-y="0"
     inkscape:window-maximized="1" />
  <metadata
     id="metadata4263">
    <rdf:RDF>
      <cc:Work
         rdf:about="">
        <dc:format>image/svg+xml</dc:format>
        <dc:type
           rdf:resource="http://purl.org/dc/dcmitype/StillImage" />
        <dc:title></dc:title>
      </cc:Work>
    </rdf:RDF>
  </metadata>
  <g
     inkscape:label="Layer 1"
     inkscape:groupmode="layer"
     id="layer1"
     transform="translate(0,-852.36216)">
    <g
       id="g5494">
      <path
         style="display:inline;opacity:0.5;fill:#000000;fill-opacity:1;stroke:none;filter:url(#filter4456);enable-background:new"
         d="m 48.03263,872.44846 c -4.432,0 -8,3.568 -8,8 l 0,144.00004 c 0,4.432 3.568,8 8,8 l 55.91602,0 56,0 c 4.432,0 8,-3.568 8,-8 l 0,-144.00004 c 0,-4.432 -3.568,-8 -8,-8 l -56,0 -55.91602,0 z"
         id="path4439"
         inkscape:connector-curvature="0"
         transform="matrix(1.0441112,0,0,1.0441112,-8.4852574,-39.969379)" />
      <path
         inkscape:connector-curvature="0"
         id="path4400"
         d="m 100.05072,868.8756 0,167.0578 58.55589,0 c 4.6275,0 8.35289,-3.7253 8.35289,-8.3528 l 0,-150.35211 c 0,-4.6275 -3.72539,-8.35289 -8.35289,-8.35289 l -58.55589,0 z"
         style="display:inline;fill:#4a68e4;fill-opacity:1;stroke:none;enable-background:new" />
      <path
         id="path4693"
         d="m 103.94877,871.44846 0,160.00024 48.00006,8 c 4.37168,0.7286 8,-3.568 8,-8 l 0,-160.00024 c 0,-4.432 -3.63428,-8.76362 -8,-8.00002 z"
         style="display:inline;opacity:0.2;fill:#000000;fill-opacity:1;stroke:none;filter:url(#filter4711);enable-background:new"
         inkscape:connector-curvature="0"
         sodipodi:nodetypes="ccssssc"
         transform="matrix(1.0441112,0,0,1.0441112,-6.0103837,-39.969379)" />
      <path
         id="path4437"
         d="m 158.52095,868.8756 c 4.6275,0 8.35289,3.72539 8.35289,8.35289 l 0,1.04411 c 0,-4.6275 -3.72539,-8.35289 -8.35289,-8.35289 l -58.38457,0 0,-1.04411 58.38457,0 z"
         style="display:inline;opacity:0.2;fill:#ffffff;fill-opacity:1;stroke:none;enable-background:new"
         inkscape:connector-curvature="0" />
      <path
         id="path4402"
         d="m 158.51911,868.8756 c 4.6275,0 8.35291,3.72539 8.35291,8.35289 l 0,150.35231 c 0,4.6275 -3.72541,8.3528 -8.35291,8.3528 l -58.47029,0 0,-167.058 z"
         style="display:inline;opacity:0.1;fill:#000000;fill-opacity:1;stroke:none;enable-background:new"
         inkscape:connector-curvature="0"
         sodipodi:nodetypes="ssssccs" />
      <path
         id="path4404"
         d="m 100.04882,868.8756 0,167.058 50.1174,8.3529 c 4.56452,0.7608 8.35289,-3.7254 8.35289,-8.3529 l 0,-167.058 c 0,-4.6275 -3.78837,-9.11365 -8.35289,-8.35291 z"
         style="display:inline;fill:#4a68e4;fill-opacity:1;stroke:none;enable-background:new"
         inkscape:connector-curvature="0"
         sodipodi:nodetypes="ccssssc" />
      <path
         style="display:inline;opacity:0.8;fill:#ffffff;fill-opacity:1;stroke:none;enable-background:new"
         clip-path="none"
         d="m 100.04882,893.93429 0,16.7058 c 7.82102,-1.39481 12.52936,7.98252 12.52936,17.17072 0,4.59409 -1.33647,9.43664 -3.65439,12.4437 l -7.83086,9.40928 c -0.37588,0.50815 -0.69237,1.02753 -1.04411,1.56616 l 0,26.23334 6.26467,1.16234 c 0,-12.52935 2.79824,-17.52542 7.30879,-23.62305 l 5.61211,-7.70032 c 3.57086,-4.76115 5.87312,-12.14091 5.87312,-19.49145 0,-18.4599 -10.51633,-36.66618 -25.05869,-33.87652 z m 0,100.23478 0,16.70593 6.26467,2.5491 0,-18.09269 z"
         id="path4406"
         inkscape:connector-curvature="0"
         sodipodi:nodetypes="ccscccccccscccccc" />
      <path
         sodipodi:nodetypes="ccssssc"
         inkscape:connector-curvature="0"
         style="display:inline;opacity:0.1;fill:#ffffff;fill-opacity:1;stroke:none;enable-background:new"
         d="m 100.04882,868.8756 0,167.058 50.1174,8.3529 c 4.56452,0.7608 8.35289,-3.7254 8.35289,-8.3529 l 0,-167.058 c 0,-4.6275 -3.79459,-9.15019 -8.35289,-8.35291 z"
         id="path4408" />
      <path
         style="display:inline;opacity:1;fill:#435ece;fill-opacity:1;stroke:none;enable-background:new"
         d="m 41.666149,868.8756 c -4.627501,0 -8.35289,3.72539 -8.35289,8.35289 l 0,150.35231 c 0,4.6275 3.725389,8.3528 8.35289,8.3528 l 58.382671,0 0,-167.058 z"
         id="path4410"
         inkscape:connector-curvature="0"
         sodipodi:nodetypes="ssssccs" />
      <path
         inkscape:connector-curvature="0"
         style="display:inline;opacity:0.2;fill:#ffffff;fill-opacity:1;stroke:none;enable-background:new"
         d="m 151.01233,860.44113 c -0.27849,0.009 -0.55897,0.034 -0.84427,0.0816 l -50.11733,8.35289 0,1.04411 50.11733,-8.35289 c 0.2853,-0.0476 0.56578,-0.0732 0.84427,-0.0816 4.17726,-0.11702 7.50862,4.09619 7.50862,8.43447 l 0,-1.04411 c 0,-4.33828 -3.33136,-8.55149 -7.50862,-8.43447 z"
         id="path4412" />
      <path
         inkscape:connector-curvature="0"
         style="display:inline;opacity:0.2;fill:#ffffff;fill-opacity:1;stroke:none;enable-background:new"
         d="m 41.666149,868.8756 c -4.627501,0 -8.35289,3.72539 -8.35289,8.35289 l 0,1.04411 c 0,-4.6275 3.725389,-8.35289 8.35289,-8.35289 l 58.384581,0 0,-1.04411 -58.384581,0 z"
         id="path4414" />
      <path
         style="display:inline;opacity:1;fill:#d9dff5;fill-opacity:1;stroke:none;enable-background:new"
         d="m 101.14982,893.93429 c -18.459916,0 -34.368098,14.95169 -34.368098,33.4116 l 16.7058,0 c 0,-9.1882 8.47411,-16.7058 17.662298,-16.7058 z m -1.101,57.29566 c -5.170317,5.92793 -8.208388,13.62376 -8.208388,22.05688 l 0,4.17646 8.295948,-1.3e-4 z m -8.208388,42.93912 0,16.70593 8.295948,-2e-4 0,-16.70588 z"
         id="path4416"
         inkscape:connector-curvature="0"
         sodipodi:nodetypes="ccccccscccccccc" />
    </g>
  </g>
</svg>
