<?xml version="1.0" encoding="UTF-8" standalone="no"?>
<!-- Created with Inkscape (http://www.inkscape.org/) -->

<svg
   xmlns:dc="http://purl.org/dc/elements/1.1/"
   xmlns:cc="http://creativecommons.org/ns#"
   xmlns:rdf="http://www.w3.org/1999/02/22-rdf-syntax-ns#"
   xmlns:svg="http://www.w3.org/2000/svg"
   xmlns="http://www.w3.org/2000/svg"
   xmlns:sodipodi="http://sodipodi.sourceforge.net/DTD/sodipodi-0.dtd"
   xmlns:inkscape="http://www.inkscape.org/namespaces/inkscape"
   width="200"
   height="200"
   viewBox="0 0 200 200"
   id="svg4258"
   version="1.1"
   inkscape:version="0.91 r13725"
   sodipodi:docname="preferences-system.svg">
  <defs
     id="defs4260">
    <clipPath
       clipPathUnits="userSpaceOnUse"
       id="clipPath4278">
      <path
         sodipodi:nodetypes="ssssssccs"
         style="fill:#e1e1e1;fill-opacity:1;stroke:none"
         d="m 300,196 c -2.216,0 -4,1.784 -4,4 l 0,72 c 0,2.216 1.784,4 4,4 l 56,0 c 2.216,0 4,-1.784 4,-4 l 0,-52 -24,-24 z"
         id="path4280"
         inkscape:connector-curvature="0" />
    </clipPath>
    <clipPath
       clipPathUnits="userSpaceOnUse"
       id="clipPath6381">
      <path
         style="display:inline;fill:#78909c;fill-opacity:1;stroke:none;enable-background:new"
         d="m 99.701172,863.95982 c -30.856318,0 -57.834649,15.80491 -73.523438,39.71679 -0.0053,0.091 -0.0048,0.17686 -0.0098,0.26758 -17.6512218,26.86944 -19.7779367,62.35948 -2.548828,92.20117 15.428134,26.72234 42.605519,42.18354 71.158203,43.81444 0.07622,-0.052 0.146798,-0.1058 0.222656,-0.1582 32.09333,1.8497 63.8891,-14.0546 81.11719,-43.89452 15.42818,-26.72234 15.22912,-57.99038 2.36523,-83.5332 l -0.52148,0 0.35156,-0.0391 c -14.43121,-28.75854 -44.12578,-48.375 -78.611328,-48.375 z"
         id="path6383"
         inkscape:connector-curvature="0" />
    </clipPath>
    <filter
       inkscape:collect="always"
       style="color-interpolation-filters:sRGB"
       id="filter8362"
       x="-0.045247862"
       width="1.0904957"
       y="-0.043583328"
       height="1.0871667">
      <feGaussianBlur
         inkscape:collect="always"
         stdDeviation="3.0166063"
         id="feGaussianBlur8364" />
    </filter>
  </defs>
  <sodipodi:namedview
     id="base"
     pagecolor="#4e4e4e"
     bordercolor="#666666"
     borderopacity="1.0"
     inkscape:pageopacity="0"
     inkscape:pageshadow="2"
     inkscape:zoom="2"
     inkscape:cx="40.257608"
     inkscape:cy="158.28539"
     inkscape:document-units="px"
     inkscape:current-layer="layer1"
     showgrid="false"
     units="px"
     inkscape:window-width="1920"
     inkscape:window-height="935"
     inkscape:window-x="1920"
     inkscape:window-y="32"
     inkscape:window-maximized="1"
     inkscape:object-paths="true"
     inkscape:snap-intersection-paths="true"
     inkscape:object-nodes="true"
     inkscape:snap-smooth-nodes="true"
     inkscape:snap-midpoints="true"
     inkscape:snap-object-midpoints="true"
     inkscape:snap-center="true"
     inkscape:snap-text-baseline="true"
     inkscape:snap-page="true"
     inkscape:snap-nodes="true"
     showguides="false" />
  <metadata
     id="metadata4263">
    <rdf:RDF>
      <cc:Work
         rdf:about="">
        <dc:format>image/svg+xml</dc:format>
        <dc:type
           rdf:resource="http://purl.org/dc/dcmitype/StillImage" />
        <dc:title></dc:title>
      </cc:Work>
    </rdf:RDF>
  </metadata>
  <g
     inkscape:label="Layer 1"
     inkscape:groupmode="layer"
     id="layer1"
     transform="translate(0,-852.36216)">
    <path
       inkscape:connector-curvature="0"
       style="fill:#000000;fill-opacity:1;fill-rule:evenodd;stroke:none;stroke-width:1px;stroke-linecap:butt;stroke-linejoin:miter;stroke-opacity:1;filter:url(#filter8362);opacity:0.243"
       d="m 87.5,870.92466 c -3.3125,0 -4.875,0.9375 -5.1875,3.5625 -0.3125,2.625 -2.880667,14.21213 -3.558594,16.74219 -0.677928,2.53006 -2.297107,3.88898 -4.683594,5.56836 -2.386484,1.67938 -7.956306,4.59654 -10.166015,5.83398 -2.209708,1.23744 -5.349522,1.87698 -8.396485,1.06055 -3.046961,-0.81643 -10.028465,-3.88763 -14.318359,-5.03711 -4.289894,-1.14947 -5.568706,0.0886 -6.894531,2.74023 -1.325825,2.65165 -11.226411,18.4724 -12.640625,20.94727 -1.414213,2.47487 -2.386063,5.5681 0.619141,8.04297 3.005202,2.47487 5.348315,3.84636 10.607421,9.10547 3.082824,3.08282 4.003351,4.62044 4.242188,6.69726 l 0,5.94141 0,3.70508 0,5.9414 c -0.238837,2.07683 -1.159364,3.61444 -4.242188,6.69727 -5.259106,5.25911 -7.602219,6.62864 -10.607421,9.10351 -3.005204,2.47487 -2.033354,5.5681 -0.619141,8.04297 1.414214,2.47487 11.3148,18.29753 12.640625,20.94923 1.325825,2.6516 2.604637,3.8897 6.894531,2.7402 4.289894,-1.1495 11.271398,-4.2226 14.318359,-5.039 3.046963,-0.8164 6.186777,-0.1769 8.396485,1.0605 2.209709,1.2375 7.779531,4.1546 10.166015,5.834 2.386487,1.6794 4.005666,3.0384 4.683594,5.5683 0.677927,2.5302 3.246094,14.1192 3.558594,16.7442 0.3125,2.625 1.875,3.5625 5.1875,3.5625 l 24.625,0 c 5,0 5.24551,-0.03 6.125,-3.3125 0.87949,-3.2823 3,-14.5 3.25,-16.25 0.25,-1.75 2.5,-4.875 5.375,-6.5 2.875,-1.625 6.75,-3.875 10.125,-5.5 3.375,-1.625 4.375,-2.375 9.5,-0.75 l 5.125,1.625 c 0,0 5.75,2 8.875,3.125 3.125,1.125 4.125,0 5.625,-2.25 1.5,-2.25 11.51396,-19.94422 12.8125,-22.19336 1.29855,-2.24915 2.52328,-4.62861 -0.57031,-7.45704 -3.0936,-2.82843 -8.39619,-7.06955 -11.22461,-9.63281 -2.82843,-2.56326 -4.1543,-4.86229 -4.1543,-9.54687 l 0,-8.83008 c 0,-4.68458 1.32587,-6.98362 4.1543,-9.54688 2.82842,-2.56326 8.13101,-6.80633 11.22461,-9.63476 3.09359,-2.82843 1.86886,-5.20789 0.57031,-7.45703 -1.29854,-2.24915 -11.3125,-19.94141 -12.8125,-22.19141 -1.5,-2.25 -2.5,-3.375 -5.625,-2.25 -3.125,1.125 -8.875,3.125 -8.875,3.125 l -5.125,1.625 c -5.125,1.625 -6.125,0.875 -9.5,-0.75 -3.375,-1.625 -7.25,-3.875 -10.125,-5.5 -2.875,-1.625 -5.125,-4.75 -5.375,-6.5 -0.25,-1.75 -2.37051,-12.96771 -3.25,-16.25 -0.87949,-3.2823 -1.125,-3.3125 -6.125,-3.3125 l -24.625,0 z"
       id="path8102-1" />
    <path
       style="fill:#688491;fill-rule:evenodd;stroke:none;stroke-width:1px;stroke-linecap:butt;stroke-linejoin:miter;stroke-opacity:1;fill-opacity:1"
       d="M 87.5 18.5625 C 84.1875 18.5625 82.625 19.5 82.3125 22.125 C 82 24.75 79.431833 36.337128 78.753906 38.867188 C 78.075978 41.397248 76.456799 42.756167 74.070312 44.435547 C 71.683828 46.114927 66.114006 49.032091 63.904297 50.269531 C 61.694589 51.506971 58.554775 52.146508 55.507812 51.330078 C 52.460851 50.513648 45.479347 47.442449 41.189453 46.292969 C 36.899559 45.143499 35.620747 46.381553 34.294922 49.033203 C 32.969097 51.684853 23.068511 67.505599 21.654297 69.980469 C 20.240084 72.455339 19.268234 75.548567 22.273438 78.023438 C 25.27864 80.498308 27.621753 81.869796 32.880859 87.128906 C 35.963683 90.211731 36.88421 91.749349 37.123047 93.826172 L 37.123047 99.767578 L 37.123047 103.47266 L 37.123047 109.41406 C 36.88421 111.49089 35.963683 113.0285 32.880859 116.11133 C 27.621753 121.37044 25.27864 122.73997 22.273438 125.21484 C 19.268234 127.68971 20.240084 130.78294 21.654297 133.25781 C 23.068511 135.73268 32.969097 151.55533 34.294922 154.20703 C 35.620747 156.85863 36.899559 158.09677 41.189453 156.94727 C 45.479347 155.79777 52.460851 152.7246 55.507812 151.9082 C 58.554775 151.0918 61.694589 151.73135 63.904297 152.96875 C 66.114006 154.20625 71.683828 157.12333 74.070312 158.80273 C 76.456799 160.48213 78.075978 161.84109 78.753906 164.37109 C 79.431833 166.90119 82 178.49023 82.3125 181.11523 C 82.625 183.74023 84.1875 184.67773 87.5 184.67773 L 112.125 184.67773 C 117.125 184.67773 117.37051 184.64773 118.25 181.36523 C 119.12949 178.08293 121.25 166.86523 121.5 165.11523 C 121.75 163.36523 124 160.24023 126.875 158.61523 C 129.75 156.99023 133.625 154.74023 137 153.11523 C 140.375 151.49023 141.375 150.74023 146.5 152.36523 L 151.625 153.99023 C 151.625 153.99023 157.375 155.99023 160.5 157.11523 C 163.625 158.24023 164.625 157.11523 166.125 154.86523 C 167.625 152.61523 177.63896 134.92102 178.9375 132.67188 C 180.23605 130.42273 181.46078 128.04327 178.36719 125.21484 C 175.27359 122.38641 169.971 118.14529 167.14258 115.58203 C 164.31415 113.01877 162.98828 110.71974 162.98828 106.03516 L 162.98828 97.205078 C 162.98828 92.520498 164.31415 90.221463 167.14258 87.658203 C 169.971 85.094943 175.27359 80.851868 178.36719 78.023438 C 181.46078 75.195007 180.23605 72.815546 178.9375 70.566406 C 177.63896 68.317256 167.625 50.625 166.125 48.375 C 164.625 46.125 163.625 45 160.5 46.125 C 157.375 47.25 151.625 49.25 151.625 49.25 L 146.5 50.875 C 141.375 52.5 140.375 51.75 137 50.125 C 133.625 48.5 129.75 46.25 126.875 44.625 C 124 43 121.75 39.875 121.5 38.125 C 121.25 36.375 119.12949 25.15729 118.25 21.875 C 117.37051 18.5927 117.125 18.5625 112.125 18.5625 L 87.5 18.5625 z "
       transform="translate(0,852.36216)"
       id="path8102" />
    <path
       style="fill:#000000;fill-rule:evenodd;stroke:none;stroke-width:1px;stroke-linecap:butt;stroke-linejoin:miter;stroke-opacity:1;fill-opacity:1;opacity:0.2"
       d="M 96.5 60.25 L 67.953125 68.410156 L 58.75 98 L 65.933594 136.81055 L 112.125 184.67773 C 117.125 184.67773 117.37051 184.64773 118.25 181.36523 C 119.12949 178.08293 121.25 166.86523 121.5 165.11523 C 121.75 163.36523 124 160.24023 126.875 158.61523 C 129.75 156.99023 133.625 154.74023 137 153.11523 C 140.375 151.49023 141.375 150.74023 146.5 152.36523 L 151.625 153.99023 C 151.625 153.99023 157.375 155.99023 160.5 157.11523 C 163.625 158.24023 164.625 157.11523 166.125 154.86523 C 167.625 152.61523 177.63896 134.92102 178.9375 132.67188 C 180.23605 130.42273 181.46078 128.04327 178.36719 125.21484 C 175.27359 122.38641 169.971 118.14529 167.14258 115.58203 C 164.31415 113.01877 162.98828 110.71974 162.98828 106.03516 L 162.98828 97.205078 C 162.98828 95.475585 163.17264 94.07386 163.54297 92.861328 L 163.53906 92.857422 L 133.69141 65.228516 L 96.5 60.25 z "
       transform="translate(0,852.36216)"
       id="path8217" />
    <path
       style="opacity:1;fill:#d2dade;fill-opacity:1;stroke:none;stroke-width:3.29999995;stroke-linecap:round;stroke-linejoin:round;stroke-miterlimit:4;stroke-dasharray:none;stroke-opacity:1"
       d="M 100.44141 52.251953 A 49.204262 49.368168 0 0 0 51.238281 101.61914 A 49.204262 49.368168 0 0 0 100.44141 150.98828 A 49.204262 49.368168 0 0 0 149.64648 101.61914 A 49.204262 49.368168 0 0 0 100.44141 52.251953 z M 100.44141 67.101562 A 34.40432 34.518925 0 0 1 134.8457 101.61914 A 34.40432 34.518925 0 0 1 100.44141 136.13867 A 34.40432 34.518925 0 0 1 66.037109 101.61914 A 34.40432 34.518925 0 0 1 100.44141 67.101562 z "
       transform="translate(0,852.36216)"
       id="path8120" />
    <ellipse
       style="opacity:1;fill:#aaffec;fill-opacity:1;stroke:none;stroke-width:3.29999995;stroke-linecap:round;stroke-linejoin:round;stroke-miterlimit:4;stroke-dasharray:none;stroke-opacity:1"
       id="path8120-4"
       cx="100.4421"
       cy="953.98206"
       rx="21.366276"
       ry="21.43745" />
    <path
       style="fill:#aaffec;fill-rule:evenodd;stroke:none;stroke-width:1px;stroke-linecap:butt;stroke-linejoin:miter;stroke-opacity:1;fill-opacity:1"
       d="M 100.44141 52.251953 A 49.204262 49.368168 0 0 0 76.125 58.744141 L 84.658203 70.949219 L 84.664062 70.955078 A 34.40432 34.518925 0 0 1 100.44141 67.101562 A 34.40432 34.518925 0 0 1 134.8457 101.61914 A 34.40432 34.518925 0 0 1 133.34375 111.68359 L 145.32227 121.70508 A 49.204262 49.368168 0 0 0 149.64648 101.61914 A 49.204262 49.368168 0 0 0 100.44141 52.251953 z "
       transform="translate(0,852.36216)"
       id="path8208" />
    <path
       style="fill:#92a6b0;fill-rule:evenodd;stroke:none;stroke-width:1px;stroke-linecap:butt;stroke-linejoin:miter;stroke-opacity:1;fill-opacity:1"
       d="M 134.80078 99.839844 L 134.7832 99.865234 A 34.40432 34.518925 0 0 1 134.8457 101.61914 A 34.40432 34.518925 0 0 1 100.44141 136.13867 A 34.40432 34.518925 0 0 1 86.75 133.27148 L 79.884766 146.4082 A 49.204262 49.368168 0 0 0 100.44141 150.98828 A 49.204262 49.368168 0 0 0 149.64648 101.61914 A 49.204262 49.368168 0 0 0 149.55859 99.839844 L 134.80078 99.839844 z "
       transform="translate(0,852.36216)"
       id="path8159" />
  </g>
</svg>
