<?xml version="1.0" encoding="UTF-8" standalone="no"?>
<!-- Created with Inkscape (http://www.inkscape.org/) -->

<svg
   xmlns:dc="http://purl.org/dc/elements/1.1/"
   xmlns:cc="http://creativecommons.org/ns#"
   xmlns:rdf="http://www.w3.org/1999/02/22-rdf-syntax-ns#"
   xmlns:svg="http://www.w3.org/2000/svg"
   xmlns="http://www.w3.org/2000/svg"
   xmlns:xlink="http://www.w3.org/1999/xlink"
   xmlns:sodipodi="http://sodipodi.sourceforge.net/DTD/sodipodi-0.dtd"
   xmlns:inkscape="http://www.inkscape.org/namespaces/inkscape"
   width="200"
   height="200"
   viewBox="0 0 200 200"
   id="svg4258"
   version="1.1"
   inkscape:version="0.91 r13725"
   sodipodi:docname="shotwell.svg">
  <defs
     id="defs4260">
    <linearGradient
       inkscape:collect="always"
       id="linearGradient7586">
      <stop
         style="stop-color:#f4800c;stop-opacity:1"
         offset="0"
         id="stop7588" />
      <stop
         style="stop-color:#dc7918;stop-opacity:1"
         offset="1"
         id="stop7590" />
    </linearGradient>
    <clipPath
       clipPathUnits="userSpaceOnUse"
       id="clipPath4278">
      <path
         sodipodi:nodetypes="ssssssccs"
         style="fill:#e1e1e1;fill-opacity:1;stroke:none"
         d="m 300,196 c -2.216,0 -4,1.784 -4,4 l 0,72 c 0,2.216 1.784,4 4,4 l 56,0 c 2.216,0 4,-1.784 4,-4 l 0,-52 -24,-24 z"
         id="path4280"
         inkscape:connector-curvature="0" />
    </clipPath>
    <clipPath
       clipPathUnits="userSpaceOnUse"
       id="clipPath4088">
      <ellipse
         ry="15.671611"
         rx="17.318172"
         cy="253.67162"
         cx="180.31818"
         style="opacity:0.2;fill:#257db1;fill-opacity:1;stroke:none"
         id="path4090"
         transform="matrix(0.98162783,0,0,1.0847641,2.9946601,55.82614)" />
    </clipPath>
    <clipPath
       clipPathUnits="userSpaceOnUse"
       id="clipPath4125">
      <path
         inkscape:connector-curvature="0"
         style="fill:#0286c2;fill-opacity:1;stroke:none"
         d="m 180,242 -4,4 0,18 c 0,1.108 -0.892,2 -2,2 l -20,0 c -1.108,0 -2,-0.892 -2,-2 l 0,-20 c 0,-1.108 0.892,-2 2,-2 l 14,0 6,0 6,0 z"
         id="path4127" />
    </clipPath>
    <clipPath
       clipPathUnits="userSpaceOnUse"
       id="clipPath4125-5">
      <path
         inkscape:connector-curvature="0"
         style="fill:#0286c2;fill-opacity:1;stroke:none"
         d="m 180,242 -4,4 0,18 c 0,1.108 -0.892,2 -2,2 l -20,0 c -1.108,0 -2,-0.892 -2,-2 l 0,-20 c 0,-1.108 0.892,-2 2,-2 l 14,0 6,0 6,0 z"
         id="path4127-9" />
    </clipPath>
    <clipPath
       clipPathUnits="userSpaceOnUse"
       id="clipPath7870">
      <path
         style="fill:url(#linearGradient7874);fill-opacity:1;fill-rule:evenodd;stroke:none;stroke-width:1px;stroke-linecap:butt;stroke-linejoin:miter;stroke-opacity:1"
         d="m 25.146485,986.46865 c 0,0 -0.618718,-5.43589 2.386486,-7.24785 3.005203,-1.81196 21.089057,-9.27837 25.106545,-10.35485 4.017487,-1.07648 10.663709,-0.53256 13.610485,10.46496 2.946775,10.99751 8.751416,48.87539 9.281746,53.02959 0.53033,4.1543 0.08655,6.9853 -4.156093,10.2557 -4.24264,3.2703 -4.264087,-0.4582 -6.056664,4.3543 l -24.13002,0 c -3.800699,0 -4.5871,-3.4733 -5.480077,-6.8059 -0.892978,-3.3327 -4.684583,-22.0971 -4.684583,-22.0971 0,0 -6.540737,-30.05206 -5.877825,-31.59885 z"
         id="path7872"
         inkscape:connector-curvature="0"
         sodipodi:nodetypes="cssssccsscc" />
    </clipPath>
    <linearGradient
       inkscape:collect="always"
       xlink:href="#linearGradient7586"
       id="linearGradient7874"
       gradientUnits="userSpaceOnUse"
       x1="32.04155"
       y1="1020.1326"
       x2="53.763767"
       y2="1015.3726" />
    <clipPath
       clipPathUnits="userSpaceOnUse"
       id="clipPath7870-3">
      <path
         style="fill:url(#linearGradient7874);fill-opacity:1;fill-rule:evenodd;stroke:none;stroke-width:1px;stroke-linecap:butt;stroke-linejoin:miter;stroke-opacity:1"
         d="m 25.146485,986.46865 c 0,0 -0.618718,-5.43589 2.386486,-7.24785 3.005203,-1.81196 21.089057,-9.27837 25.106545,-10.35485 4.017487,-1.07648 10.663709,-0.53256 13.610485,10.46496 2.946775,10.99751 8.751416,48.87539 9.281746,53.02959 0.53033,4.1543 0.08655,6.9853 -4.156093,10.2557 -4.24264,3.2703 -4.264087,-0.4582 -6.056664,4.3543 l -24.13002,0 c -3.800699,0 -4.5871,-3.4733 -5.480077,-6.8059 -0.892978,-3.3327 -4.684583,-22.0971 -4.684583,-22.0971 0,0 -6.540737,-30.05206 -5.877825,-31.59885 z"
         id="path7872-2"
         inkscape:connector-curvature="0"
         sodipodi:nodetypes="cssssccsscc" />
    </clipPath>
    <clipPath
       clipPathUnits="userSpaceOnUse"
       id="clipPath7870-3-7">
      <path
         style="fill:url(#linearGradient7874);fill-opacity:1;fill-rule:evenodd;stroke:none;stroke-width:1px;stroke-linecap:butt;stroke-linejoin:miter;stroke-opacity:1"
         d="m 25.146485,986.46865 c 0,0 -0.618718,-5.43589 2.386486,-7.24785 3.005203,-1.81196 21.089057,-9.27837 25.106545,-10.35485 4.017487,-1.07648 10.663709,-0.53256 13.610485,10.46496 2.946775,10.99751 8.751416,48.87539 9.281746,53.02959 0.53033,4.1543 0.08655,6.9853 -4.156093,10.2557 -4.24264,3.2703 -4.264087,-0.4582 -6.056664,4.3543 l -24.13002,0 c -3.800699,0 -4.5871,-3.4733 -5.480077,-6.8059 -0.892978,-3.3327 -4.684583,-22.0971 -4.684583,-22.0971 0,0 -6.540737,-30.05206 -5.877825,-31.59885 z"
         id="path7872-2-0"
         inkscape:connector-curvature="0"
         sodipodi:nodetypes="cssssccsscc" />
    </clipPath>
    <clipPath
       clipPathUnits="userSpaceOnUse"
       id="clipPath7870-5">
      <path
         style="fill:url(#linearGradient7874);fill-opacity:1;fill-rule:evenodd;stroke:none;stroke-width:1px;stroke-linecap:butt;stroke-linejoin:miter;stroke-opacity:1"
         d="m 25.146485,986.46865 c 0,0 -0.618718,-5.43589 2.386486,-7.24785 3.005203,-1.81196 21.089057,-9.27837 25.106545,-10.35485 4.017487,-1.07648 10.663709,-0.53256 13.610485,10.46496 2.946775,10.99751 8.751416,48.87539 9.281746,53.02959 0.53033,4.1543 0.08655,6.9853 -4.156093,10.2557 -4.24264,3.2703 -4.264087,-0.4582 -6.056664,4.3543 l -24.13002,0 c -3.800699,0 -4.5871,-3.4733 -5.480077,-6.8059 -0.892978,-3.3327 -4.684583,-22.0971 -4.684583,-22.0971 0,0 -6.540737,-30.05206 -5.877825,-31.59885 z"
         id="path7872-4"
         inkscape:connector-curvature="0"
         sodipodi:nodetypes="cssssccsscc" />
    </clipPath>
    <filter
       inkscape:collect="always"
       style="color-interpolation-filters:sRGB"
       id="filter8284"
       x="-0.060008193"
       width="1.1200164"
       y="-0.059991809"
       height="1.1199836">
      <feGaussianBlur
         inkscape:collect="always"
         stdDeviation="25.570044"
         id="feGaussianBlur8286" />
    </filter>
  </defs>
  <sodipodi:namedview
     id="base"
     pagecolor="#4e4e4e"
     bordercolor="#666666"
     borderopacity="1.0"
     inkscape:pageopacity="0"
     inkscape:pageshadow="2"
     inkscape:zoom="2"
     inkscape:cx="117.23289"
     inkscape:cy="108.71551"
     inkscape:document-units="px"
     inkscape:current-layer="g5494"
     showgrid="false"
     units="px"
     inkscape:window-width="1920"
     inkscape:window-height="1047"
     inkscape:window-x="0"
     inkscape:window-y="0"
     inkscape:window-maximized="1" />
  <metadata
     id="metadata4263">
    <rdf:RDF>
      <cc:Work
         rdf:about="">
        <dc:format>image/svg+xml</dc:format>
        <dc:type
           rdf:resource="http://purl.org/dc/dcmitype/StillImage" />
        <dc:title></dc:title>
      </cc:Work>
    </rdf:RDF>
  </metadata>
  <g
     inkscape:label="Layer 1"
     inkscape:groupmode="layer"
     id="layer1"
     transform="translate(0,-852.36216)">
    <g
       id="g5494">
      <path
         style="opacity:0.5;fill:#000000;fill-opacity:1;fill-rule:evenodd;stroke:none;stroke-width:1px;stroke-linecap:butt;stroke-linejoin:miter;stroke-opacity:1;filter:url(#filter8284)"
         d="m 142.48828,-467.61914 0.008,255.88867 -255.38281,0 -0.004,-0.004 -256.11915,255.595708 255.57032,-0.0078 0,255.343752 -0.004,0.004 0.004,0.004 255.59375,256.11719 -0.008,-255.88868 255.38086,0 0.004,0.004 256.12109,-255.595701 -255.57226,0.0078 0,-255.343749 0.004,-0.004 -255.5957,-256.12109 z m 0.29297,365.58594 41.7168,103.9023406 0.01,-0.00977 103.66992,42.2304694 -104.01367,41.761718 0.01,0.0098 -42.31445,103.875002 -41.7168,-103.902346 -0.01,0.0098 L -3.5371094,43.613281 100.47656,1.8515625 l -0.01,-0.00977 42.31445,-103.8749925 z"
         transform="matrix(0.17477233,0,0,0.17477233,76.44749,944.06283)"
         id="path8188-2"
         inkscape:connector-curvature="0" />
      <path
         style="fill:#ef851c;fill-opacity:1;fill-rule:evenodd;stroke:none;stroke-width:1px;stroke-linecap:butt;stroke-linejoin:miter;stroke-opacity:1"
         d="m 56.716653,907.0582 44.729427,0 c 0,0 3.02882,16.03434 0,19.06316 l -7.440115,18.26439 c 0,0 -32.550778,-28.46355 -37.289312,-37.32755 z"
         id="path8188"
         inkscape:connector-curvature="0" />
      <path
         style="fill:#1a8763;fill-opacity:1;fill-rule:evenodd;stroke:none;stroke-width:1px;stroke-linecap:butt;stroke-linejoin:miter;stroke-opacity:1"
         d="m 56.621516,996.35572 0,-44.72943 c 0,0 16.034334,-3.02882 19.063151,0 l 18.264397,7.44011 c 0,0 -28.463557,32.55079 -37.327548,37.28932 z"
         id="path8188-8-3"
         inkscape:connector-curvature="0" />
      <path
         style="fill:#ffbb1b;fill-opacity:1;fill-rule:evenodd;stroke:none;stroke-width:1px;stroke-linecap:butt;stroke-linejoin:miter;stroke-opacity:1"
         d="m 11.954701,951.72869 44.762633,-44.67117 37.290684,37.32892 -18.282709,7.34032 z"
         id="path8184"
         inkscape:connector-curvature="0" />
      <path
         style="fill:#7e3794;fill-opacity:1;fill-rule:evenodd;stroke:none;stroke-width:1px;stroke-linecap:butt;stroke-linejoin:miter;stroke-opacity:1"
         d="m 146.0209,907.09801 0,44.72943 c 0,0 -16.03434,3.02882 -19.06316,0 l -18.26439,-7.44011 c 0,0 28.46356,-32.55079 37.32755,-37.28932 z"
         id="path8188-8"
         inkscape:connector-curvature="0" />
      <path
         style="fill:#dd4b39;fill-opacity:1;fill-rule:evenodd;stroke:none;stroke-width:1px;stroke-linecap:butt;stroke-linejoin:miter;stroke-opacity:1"
         d="m 101.35042,862.33606 44.67117,44.76263 -37.32892,37.29068 -7.34033,-18.28271 z"
         id="path8184-4"
         inkscape:connector-curvature="0" />
      <path
         style="fill:#43459d;fill-opacity:1;fill-rule:evenodd;stroke:none;stroke-width:1px;stroke-linecap:butt;stroke-linejoin:miter;stroke-opacity:1"
         d="m 145.92576,996.39551 -44.72943,0 c 0,0 -3.028816,-16.03433 0,-19.06315 l 7.44012,-18.26439 c 0,0 32.55078,28.46354 37.28931,37.32754 z"
         id="path8188-4"
         inkscape:connector-curvature="0" />
      <path
         style="fill:#427fed;fill-opacity:1;fill-rule:evenodd;stroke:none;stroke-width:1px;stroke-linecap:butt;stroke-linejoin:miter;stroke-opacity:1"
         d="m 190.68772,951.72504 -44.76264,44.67115 -37.29068,-37.3289 18.28271,-7.34033 z"
         id="path8184-2"
         inkscape:connector-curvature="0" />
      <path
         style="fill:#65b045;fill-opacity:1;fill-rule:evenodd;stroke:none;stroke-width:1px;stroke-linecap:butt;stroke-linejoin:miter;stroke-opacity:1"
         d="m 101.292,1041.1177 -44.671168,-44.76266 37.328914,-37.29068 7.340334,18.2827 z"
         id="path8184-4-8"
         inkscape:connector-curvature="0" />
    </g>
  </g>
</svg>
