<?xml version="1.0" encoding="UTF-8" standalone="no"?>
<!-- Created with Inkscape (http://www.inkscape.org/) -->

<svg
   xmlns:dc="http://purl.org/dc/elements/1.1/"
   xmlns:cc="http://creativecommons.org/ns#"
   xmlns:rdf="http://www.w3.org/1999/02/22-rdf-syntax-ns#"
   xmlns:svg="http://www.w3.org/2000/svg"
   xmlns="http://www.w3.org/2000/svg"
   xmlns:xlink="http://www.w3.org/1999/xlink"
   xmlns:sodipodi="http://sodipodi.sourceforge.net/DTD/sodipodi-0.dtd"
   xmlns:inkscape="http://www.inkscape.org/namespaces/inkscape"
   width="200"
   height="200"
   viewBox="0 0 200 200"
   id="svg4258"
   version="1.1"
   inkscape:version="0.91 r13725"
   sodipodi:docname="web-circ.svg">
  <defs
     id="defs4260">
    <clipPath
       clipPathUnits="userSpaceOnUse"
       id="clipPath4278">
      <path
         sodipodi:nodetypes="ssssssccs"
         style="fill:#e1e1e1;fill-opacity:1;stroke:none"
         d="m 300,196 c -2.216,0 -4,1.784 -4,4 l 0,72 c 0,2.216 1.784,4 4,4 l 56,0 c 2.216,0 4,-1.784 4,-4 l 0,-52 -24,-24 z"
         id="path4280"
         inkscape:connector-curvature="0" />
    </clipPath>
    <clipPath
       clipPathUnits="userSpaceOnUse"
       id="clipPath4088">
      <ellipse
         ry="15.671611"
         rx="17.318172"
         cy="253.67162"
         cx="180.31818"
         style="opacity:0.2;fill:#257db1;fill-opacity:1;stroke:none"
         id="path4090"
         transform="matrix(0.98162783,0,0,1.0847641,2.9946601,55.82614)" />
    </clipPath>
    <linearGradient
       gradientTransform="translate(141.2,60.1)"
       inkscape:collect="always"
       xlink:href="#linearGradient4129"
       id="linearGradient4239"
       gradientUnits="userSpaceOnUse"
       x1="166"
       y1="257"
       x2="176"
       y2="257" />
    <linearGradient
       inkscape:collect="always"
       id="linearGradient4129">
      <stop
         style="stop-color:#000000;stop-opacity:1;"
         offset="0"
         id="stop4131" />
      <stop
         style="stop-color:#000000;stop-opacity:0;"
         offset="1"
         id="stop4133" />
    </linearGradient>
    <clipPath
       clipPathUnits="userSpaceOnUse"
       id="clipPath4125">
      <path
         inkscape:connector-curvature="0"
         style="fill:#0286c2;fill-opacity:1;stroke:none"
         d="m 180,242 -4,4 0,18 c 0,1.108 -0.892,2 -2,2 l -20,0 c -1.108,0 -2,-0.892 -2,-2 l 0,-20 c 0,-1.108 0.892,-2 2,-2 l 14,0 6,0 6,0 z"
         id="path4127" />
    </clipPath>
    <filter
       inkscape:collect="always"
       id="filter4260">
      <feGaussianBlur
         inkscape:collect="always"
         stdDeviation="1.3"
         id="feGaussianBlur4262" />
    </filter>
    <filter
       inkscape:collect="always"
       id="filter4256">
      <feGaussianBlur
         inkscape:collect="always"
         stdDeviation="1.3"
         id="feGaussianBlur4258" />
    </filter>
    <clipPath
       clipPathUnits="userSpaceOnUse"
       id="clipPath4125-5">
      <path
         inkscape:connector-curvature="0"
         style="fill:#0286c2;fill-opacity:1;stroke:none"
         d="m 180,242 -4,4 0,18 c 0,1.108 -0.892,2 -2,2 l -20,0 c -1.108,0 -2,-0.892 -2,-2 l 0,-20 c 0,-1.108 0.892,-2 2,-2 l 14,0 6,0 6,0 z"
         id="path4127-9" />
    </clipPath>
  </defs>
  <sodipodi:namedview
     id="base"
     pagecolor="#4e4e4e"
     bordercolor="#666666"
     borderopacity="1.0"
     inkscape:pageopacity="0"
     inkscape:pageshadow="2"
     inkscape:zoom="2.8284271"
     inkscape:cx="15.130107"
     inkscape:cy="94.089905"
     inkscape:document-units="px"
     inkscape:current-layer="g5494"
     showgrid="false"
     units="px"
     inkscape:window-width="1920"
     inkscape:window-height="1047"
     inkscape:window-x="0"
     inkscape:window-y="0"
     inkscape:window-maximized="1" />
  <metadata
     id="metadata4263">
    <rdf:RDF>
      <cc:Work
         rdf:about="">
        <dc:format>image/svg+xml</dc:format>
        <dc:type
           rdf:resource="http://purl.org/dc/dcmitype/StillImage" />
        <dc:title></dc:title>
      </cc:Work>
    </rdf:RDF>
  </metadata>
  <g
     inkscape:label="Layer 1"
     inkscape:groupmode="layer"
     id="layer1"
     transform="translate(0,-852.36216)">
    <g
       id="g5494">
      <path
         id="path4190"
         d="m 145.00535,930.44868 -8,8 0,36 c 0,2.216 -1.784,4 -4,4 l -39.999995,0 c -2.216,0 -4,-1.784 -4,-4 l 0,-40 c 0,-2.216 1.784,-4 4,-4 l 27.999995,0 12,0 12,0 z"
         style="display:inline;opacity:0.5;fill:#000000;fill-opacity:1;stroke:none;filter:url(#filter4256);enable-background:new"
         inkscape:connector-curvature="0"
         transform="matrix(2.3258248,0,0,2.3258248,-143.8149,-1292.3019)" />
      <path
         inkscape:connector-curvature="0"
         style="display:inline;fill:#4bae4f;fill-opacity:1;stroke:none;enable-background:new"
         d="m 193.44215,869.43299 -18.6066,18.60659 0,83.7297 c 0,5.15403 -4.14927,9.3033 -9.3033,9.3033 l -93.032986,0 c -5.154028,0 -9.303299,-4.14927 -9.303299,-9.3033 l 0,-93.03299 c 0,-5.15403 4.149271,-9.3033 9.303299,-9.3033 l 65.123086,0 27.9099,0 27.9099,0 z"
         id="path4192" />
      <path
         style="display:inline;opacity:0.5;fill:#000000;fill-opacity:1;stroke:none;filter:url(#filter4260);enable-background:new"
         d="m 65.005355,954.44868 8,8 0,36 c 0,2.21602 1.784,4.00002 4,4.00002 l 39.999995,0 c 2.216,0 4,-1.784 4,-4.00002 l 0,-40 c 0,-2.216 -1.784,-4 -4,-4 l -27.999995,0 -12,0 -12,0 z"
         id="path4202"
         inkscape:connector-curvature="0"
         transform="matrix(2.3258248,0,0,2.3258248,-143.8149,-1292.3019)" />
      <path
         clip-path="url(#clipPath4125)"
         sodipodi:nodetypes="cccccccccc"
         inkscape:connector-curvature="0"
         id="path4204"
         d="m 165.78125,254 c -0.97225,0.10705 -1.78703,1.02189 -1.78125,2 l 0,16 c 1e-4,1.04717 0.95283,1.9999 2,2 l 10,0 c 1.04717,-10e-5 1.9999,-0.95283 2,-2 l 0,-6 c -0.004,-0.52204 -0.22253,-1.03918 -0.59375,-1.40625 l -10,-10 c -0.41655,-0.42679 -1.03142,-0.65146 -1.625,-0.59375 z"
         style="color:#000000;font-style:normal;font-variant:normal;font-weight:normal;font-stretch:normal;font-size:medium;line-height:normal;font-family:Sans;-inkscape-font-specification:Sans;text-indent:0;text-align:start;text-decoration:none;text-decoration-line:none;letter-spacing:normal;word-spacing:normal;text-transform:none;direction:ltr;block-progression:tb;writing-mode:lr-tb;baseline-shift:baseline;text-anchor:start;display:inline;overflow:visible;visibility:visible;opacity:0.2;fill:url(#linearGradient4239);fill-opacity:1;stroke:none;stroke-width:4;marker:none;enable-background:accumulate"
         transform="matrix(4.6516497,0,0,4.6516497,-643.85477,-256.26624)" />
      <path
         inkscape:connector-curvature="0"
         id="path4206"
         d="m 7.3761689,925.25278 18.6065981,18.6066 0,83.72962 c 0,5.1541 4.149272,9.3034 9.3033,9.3034 l 93.032983,0 c 5.15403,0 9.3033,-4.1493 9.3033,-9.3034 l 0,-93.03292 c 0,-5.15403 -4.14927,-9.3033 -9.3033,-9.3033 l -65.123085,0 -27.909898,0 -27.9098981,0 z"
         style="display:inline;fill:#8ac249;fill-opacity:1;stroke:none;enable-background:new" />
      <path
         inkscape:connector-curvature="0"
         id="path4216"
         d="m 72.499264,869.43299 c -5.154028,0 -9.303299,4.14927 -9.303299,9.3033 l 0,2.32582 c 0,-5.15403 4.149271,-9.3033 9.303299,-9.3033 l 65.123086,0 27.9099,0 25.58407,0 2.32583,-2.32582 -27.9099,0 -27.9099,0 -65.123086,0 z"
         style="display:inline;opacity:0.1;fill:#ffffff;fill-opacity:1;stroke:none;enable-background:new" />
      <path
         inkscape:connector-curvature="0"
         id="path4218"
         d="m 7.3761689,925.25278 2.325825,2.32583 25.5840731,0 27.909898,0 65.123085,0 c 5.15403,0 9.3033,4.14927 9.3033,9.3033 l 0,-2.32583 c 0,-5.15403 -4.14927,-9.3033 -9.3033,-9.3033 l -65.123085,0 -27.909898,0 -27.9098981,0 z"
         style="display:inline;opacity:0.1;fill:#ffffff;fill-opacity:1;stroke:none;enable-background:new" />
      <path
         sodipodi:nodetypes="cccccccccccccccccccccccccccccccccc"
         inkscape:connector-curvature="0"
         id="path8332-1"
         d="m 68.473289,943.47863 -3.209611,18.20255 -12.310887,0 0,9.10128 10.706059,0 -3.209565,18.20255 -12.047132,0 0,9.10128 10.442304,0 -3.20961,18.20241 9.101275,0 3.209611,-18.20241 18.202552,0 -3.20961,18.20241 9.101276,0 3.209611,-18.20241 12.310888,0 0,-9.10128 -10.70606,0 3.20956,-18.20255 12.04714,0 0,-9.10128 -10.44231,0 3.20961,-18.20255 -9.101272,0 -3.209611,18.20255 -18.202553,0 3.209611,-18.20255 z m 4.286837,27.30383 18.202553,0 -3.209565,18.20255 -18.202553,0 z"
         style="display:inline;opacity:1;fill:#ffffff;fill-opacity:1;stroke:none;stroke-opacity:1;enable-background:new" />
    </g>
  </g>
</svg>
