<?xml version="1.0" encoding="UTF-8" standalone="no"?>
<!-- Created with Inkscape (http://www.inkscape.org/) -->

<svg
   xmlns:dc="http://purl.org/dc/elements/1.1/"
   xmlns:cc="http://creativecommons.org/ns#"
   xmlns:rdf="http://www.w3.org/1999/02/22-rdf-syntax-ns#"
   xmlns:svg="http://www.w3.org/2000/svg"
   xmlns="http://www.w3.org/2000/svg"
   xmlns:xlink="http://www.w3.org/1999/xlink"
   xmlns:sodipodi="http://sodipodi.sourceforge.net/DTD/sodipodi-0.dtd"
   xmlns:inkscape="http://www.inkscape.org/namespaces/inkscape"
   width="200"
   height="200"
   viewBox="0 0 200 200"
   id="svg4258"
   version="1.1"
   inkscape:version="0.91 r13725"
   sodipodi:docname="chromium.svg">
  <defs
     id="defs4260">
    <clipPath
       clipPathUnits="userSpaceOnUse"
       id="clipPath4278">
      <path
         sodipodi:nodetypes="ssssssccs"
         style="fill:#e1e1e1;fill-opacity:1;stroke:none"
         d="m 300,196 c -2.216,0 -4,1.784 -4,4 l 0,72 c 0,2.216 1.784,4 4,4 l 56,0 c 2.216,0 4,-1.784 4,-4 l 0,-52 -24,-24 z"
         id="path4280"
         inkscape:connector-curvature="0" />
    </clipPath>
    <filter
       inkscape:collect="always"
       id="filter4214"
       x="-0.12"
       width="1.24"
       y="-0.12"
       height="1.24">
      <feGaussianBlur
         inkscape:collect="always"
         stdDeviation="3.6"
         id="feGaussianBlur4216" />
    </filter>
    <linearGradient
       inkscape:collect="always"
       xlink:href="#linearGradient4081"
       id="linearGradient4196"
       gradientUnits="userSpaceOnUse"
       gradientTransform="matrix(4.3965305,0,0,4.3952098,-172.49936,-172.2992)"
       x1="168"
       y1="266"
       x2="160"
       y2="270" />
    <linearGradient
       inkscape:collect="always"
       id="linearGradient4081">
      <stop
         style="stop-color:#000000;stop-opacity:1;"
         offset="0"
         id="stop4083" />
      <stop
         style="stop-color:#000000;stop-opacity:0;"
         offset="1"
         id="stop4086" />
    </linearGradient>
    <linearGradient
       inkscape:collect="always"
       xlink:href="#linearGradient4081"
       id="linearGradient4200"
       gradientUnits="userSpaceOnUse"
       gradientTransform="matrix(4.3965305,0,0,4.3952098,-172.49936,-172.2992)"
       x1="163"
       y1="251"
       x2="177"
       y2="256" />
    <linearGradient
       inkscape:collect="always"
       xlink:href="#linearGradient4081"
       id="linearGradient4203"
       gradientUnits="userSpaceOnUse"
       gradientTransform="matrix(4.3965305,0,0,4.3952098,-172.49936,-172.2992)"
       x1="148"
       y1="262"
       x2="154"
       y2="255" />
    <filter
       inkscape:collect="always"
       id="filter4210">
      <feGaussianBlur
         inkscape:collect="always"
         stdDeviation="1.6"
         id="feGaussianBlur4212" />
    </filter>
  </defs>
  <sodipodi:namedview
     id="base"
     pagecolor="#4e4e4e"
     bordercolor="#666666"
     borderopacity="1.0"
     inkscape:pageopacity="0"
     inkscape:pageshadow="2"
     inkscape:zoom="2.8284271"
     inkscape:cx="102.44371"
     inkscape:cy="116.97456"
     inkscape:document-units="px"
     inkscape:current-layer="layer1"
     showgrid="false"
     units="px"
     inkscape:window-width="1920"
     inkscape:window-height="1047"
     inkscape:window-x="0"
     inkscape:window-y="0"
     inkscape:window-maximized="1" />
  <metadata
     id="metadata4263">
    <rdf:RDF>
      <cc:Work
         rdf:about="">
        <dc:format>image/svg+xml</dc:format>
        <dc:type
           rdf:resource="http://purl.org/dc/dcmitype/StillImage" />
        <dc:title></dc:title>
      </cc:Work>
    </rdf:RDF>
  </metadata>
  <g
     inkscape:label="Layer 1"
     inkscape:groupmode="layer"
     id="layer1"
     transform="translate(0,-852.36216)">
    <rect
       ry="80"
       rx="80"
       y="-568"
       x="-269"
       height="160"
       width="160"
       id="rect4104"
       style="display:inline;opacity:0.5;fill:#000000;fill-opacity:1;stroke:none;filter:url(#filter4210);enable-background:new"
       transform="matrix(0,-1.0988025,-1.0991325,0,-436.29119,745.20081)" />
    <path
       id="path4106"
       d="m 100.08552,1039.6799 c -48.713551,0 -87.930601,-39.2053 -87.930601,-87.90421 0,-0.73717 -0.01758,-1.46489 0,-2.19761 1.162618,47.67199 39.954437,85.70662 87.930601,85.70662 47.97618,0 86.76799,-38.03463 87.9306,-85.70662 0.0176,0.73272 0,1.46044 0,2.19761 0,48.69891 -39.21704,87.90421 -87.9306,87.90421 z"
       style="display:inline;opacity:0.1;fill:#000000;fill-opacity:1;stroke:none;enable-background:new"
       inkscape:connector-curvature="0" />
    <path
       style="display:inline;fill:#608ab5;fill-opacity:1;stroke:none;enable-background:new"
       d="m 100.08552,863.87148 c -30.847766,0 -57.820039,15.79618 -73.504486,39.69425 -2.089781,35.80393 21.487569,48.58019 38.744424,67.02695 -3.038662,-5.60587 -4.808705,-11.96873 -4.808705,-18.81699 0,-21.91451 17.783613,-28.32972 39.568767,-30.76647 l 78.58798,-8.79043 c -14.42721,-28.74194 -44.11197,-48.34731 -78.58798,-48.34731 z"
       id="path4108"
       inkscape:connector-curvature="0"
       sodipodi:nodetypes="sccsscs" />
    <path
       style="display:inline;fill:#85b4df;fill-opacity:1;stroke:none;enable-background:new"
       d="m 24.024189,995.98065 c 15.423863,26.70705 42.593982,42.16055 71.13876,43.79035 27.807701,-19.0804 31.718651,-43.40463 38.692271,-67.05693 -3.33696,5.43371 -7.96398,10.14756 -13.89655,13.5717 -8.51222,4.91308 -16.66543,2.15923 -25.590625,0.51099 -10.980059,-2.02767 -22.415312,-4.52093 -28.461321,-14.98978 L 26.612733,903.76822 C 8.9276453,930.62978 6.7861835,966.13251 24.024189,995.98065 Z"
       id="path4110"
       inkscape:connector-curvature="0"
       sodipodi:nodetypes="sccssscs" />
    <path
       style="display:inline;fill:#cddff0;fill-opacity:1;stroke:none;enable-background:new"
       d="m 176.47884,995.74234 c 15.4239,-26.70693 15.22605,-57.95666 2.36573,-83.48474 l -77.4367,0.0308 c 6.37563,0.17229 12.77267,1.82115 18.70525,5.24529 10.3779,5.98989 7.68692,17.69254 9.77944,28.55377 1.73532,9.00717 9.67262,16.87816 4.70374,25.48191 L 95.30232,1039.608 c 32.1123,1.8807 63.93851,-14.0169 81.17652,-43.86503 z"
       id="path4112"
       inkscape:connector-curvature="0"
       sodipodi:nodetypes="cccssscsc" />
    <path
       inkscape:connector-curvature="0"
       id="path4114"
       d="M 65.817957,971.55413 100.08552,951.77569 26.472087,903.34786 Z"
       style="display:inline;opacity:0.2;fill:url(#linearGradient4203);fill-opacity:1;stroke:none;enable-background:new" />
    <path
       style="display:inline;opacity:0.1;fill:url(#linearGradient4200);fill-opacity:1;stroke:none;enable-background:new"
       d="m 100.08552,912.21879 0,39.5569 78.75905,-39.51809 z"
       id="path4116"
       inkscape:connector-curvature="0" />
    <path
       inkscape:connector-curvature="0"
       style="display:inline;opacity:0.1;fill:#ffffff;fill-opacity:1;stroke:none;enable-background:new"
       d="m 100.08552,863.87148 c -47.928638,0 -86.557391,37.96358 -87.793211,85.56925 0.01395,-0.27747 0.05221,-0.54734 0.0687,-0.82409 0.03374,-0.71477 0.08683,-1.41885 0.137391,-2.12894 0.01098,-0.12606 0.0233,-0.2518 0.0343,-0.37772 0.05155,-0.58518 0.108925,-1.16946 0.171739,-1.75121 4.262579,-44.66069 41.551894,-79.38847 87.381096,-79.38847 45.82919,0 83.11851,34.72778 87.38103,79.38847 0.0628,0.58175 0.12022,1.16603 0.17174,1.75121 0.0554,0.734 0.13428,1.4586 0.17172,2.1976 0.006,0.10319 -0.006,0.20587 0,0.30906 0.0166,0.27675 0.0548,0.54662 0.0687,0.82409 -1.23583,-47.60567 -39.86458,-85.56925 -87.79322,-85.56925 z"
       id="path4118" />
    <path
       style="display:inline;opacity:0.2;fill:url(#linearGradient4196);fill-opacity:1;stroke:none;enable-background:new"
       d="m 134.35309,971.55409 -34.26757,-19.77845 -5.145607,87.94586 z"
       id="path4120"
       inkscape:connector-curvature="0" />
    <path
       inkscape:connector-curvature="0"
       style="display:inline;opacity:0.1;fill:#ffffff;fill-opacity:1;stroke:none;enable-background:new"
       d="m 12.292309,954.52269 c 1.447734,47.41261 40.0028,85.15721 87.793211,85.15721 47.79042,0 86.34549,-37.7446 87.79322,-85.15721 -0.0564,1.12053 -0.14279,2.22192 -0.24044,3.33074 -0.0698,0.79216 -0.14999,1.58346 -0.24044,2.3693 -0.10523,0.98208 -0.24086,1.94674 -0.37782,2.91871 -6.02249,42.73946 -42.4665,75.43956 -86.93452,75.43956 -44.468007,0 -80.912024,-32.7001 -86.934512,-75.43956 -0.136963,-0.97197 -0.272629,-1.93663 -0.377827,-2.91871 -0.09045,-0.78584 -0.170674,-1.57714 -0.240436,-2.3693 -0.0976,-1.10882 -0.183983,-2.21021 -0.240436,-3.33074 z"
       id="path4122" />
    <rect
       transform="matrix(0,-1.0988025,-1.0991325,0,-436.29119,745.20081)"
       style="display:inline;opacity:0.2;fill:#000000;fill-opacity:1;stroke:none;filter:url(#filter4214);enable-background:new"
       id="rect4124"
       width="72"
       height="72"
       x="-226"
       y="-524"
       rx="36"
       ry="36" />
    <rect
       ry="39.568779"
       rx="39.556892"
       y="-139.6543"
       x="-991.33264"
       height="79.137558"
       width="79.113785"
       id="rect4126"
       style="display:inline;fill:#ffffff;fill-opacity:1;stroke:none;enable-background:new"
       transform="matrix(0,-1,-1,0,0,0)" />
    <rect
       transform="matrix(0,-1,-1,0,0,0)"
       style="display:inline;fill:#779fd3;fill-opacity:1;stroke:none;enable-background:new"
       id="rect4128"
       width="65.928154"
       height="65.94796"
       x="-984.73981"
       y="-133.05949"
       rx="32.964077"
       ry="32.97398" />
  </g>
</svg>
