<?xml version="1.0" encoding="UTF-8" standalone="no"?>
<!-- Created with Inkscape (http://www.inkscape.org/) -->

<svg
   xmlns:dc="http://purl.org/dc/elements/1.1/"
   xmlns:cc="http://creativecommons.org/ns#"
   xmlns:rdf="http://www.w3.org/1999/02/22-rdf-syntax-ns#"
   xmlns:svg="http://www.w3.org/2000/svg"
   xmlns="http://www.w3.org/2000/svg"
   xmlns:xlink="http://www.w3.org/1999/xlink"
   xmlns:sodipodi="http://sodipodi.sourceforge.net/DTD/sodipodi-0.dtd"
   xmlns:inkscape="http://www.inkscape.org/namespaces/inkscape"
   width="200"
   height="200"
   viewBox="0 0 200 200"
   id="svg4258"
   version="1.1"
   inkscape:version="0.91 r13725"
   sodipodi:docname="google.chrome.svg">
  <defs
     id="defs4260">
    <clipPath
       clipPathUnits="userSpaceOnUse"
       id="clipPath4278">
      <path
         sodipodi:nodetypes="ssssssccs"
         style="fill:#e1e1e1;fill-opacity:1;stroke:none"
         d="m 300,196 c -2.216,0 -4,1.784 -4,4 l 0,72 c 0,2.216 1.784,4 4,4 l 56,0 c 2.216,0 4,-1.784 4,-4 l 0,-52 -24,-24 z"
         id="path4280"
         inkscape:connector-curvature="0" />
    </clipPath>
    <linearGradient
       inkscape:collect="always"
       id="linearGradient4081">
      <stop
         style="stop-color:#000000;stop-opacity:1;"
         offset="0"
         id="stop4083" />
      <stop
         style="stop-color:#000000;stop-opacity:0;"
         offset="1"
         id="stop4086" />
    </linearGradient>
    <filter
       inkscape:collect="always"
       id="filter4214-2"
       x="-0.12"
       width="1.24"
       y="-0.12"
       height="1.24">
      <feGaussianBlur
         inkscape:collect="always"
         stdDeviation="3.6"
         id="feGaussianBlur4216-1" />
    </filter>
    <linearGradient
       inkscape:collect="always"
       xlink:href="#linearGradient4081"
       id="linearGradient4196-5"
       gradientUnits="userSpaceOnUse"
       gradientTransform="matrix(4.3977476,0,0,4.3977476,-172.95829,-172.80972)"
       x1="168"
       y1="266"
       x2="160"
       y2="270" />
    <linearGradient
       inkscape:collect="always"
       xlink:href="#linearGradient4081"
       id="linearGradient4200-5"
       gradientUnits="userSpaceOnUse"
       gradientTransform="matrix(4.3977476,0,0,4.3977476,-172.95829,-172.80972)"
       x1="163"
       y1="251"
       x2="177"
       y2="256" />
    <linearGradient
       inkscape:collect="always"
       xlink:href="#linearGradient4081"
       id="linearGradient4203-5"
       gradientUnits="userSpaceOnUse"
       gradientTransform="matrix(4.3977476,0,0,4.3977476,-172.95829,-172.80972)"
       x1="148"
       y1="262"
       x2="154"
       y2="255" />
    <filter
       inkscape:collect="always"
       id="filter4210-9">
      <feGaussianBlur
         inkscape:collect="always"
         stdDeviation="1.6"
         id="feGaussianBlur4212-0" />
    </filter>
  </defs>
  <sodipodi:namedview
     id="base"
     pagecolor="#4e4e4e"
     bordercolor="#666666"
     borderopacity="1.0"
     inkscape:pageopacity="0"
     inkscape:pageshadow="2"
     inkscape:zoom="2.8284271"
     inkscape:cx="102.44371"
     inkscape:cy="72.549083"
     inkscape:document-units="px"
     inkscape:current-layer="layer1"
     showgrid="false"
     units="px"
     inkscape:window-width="1920"
     inkscape:window-height="1047"
     inkscape:window-x="0"
     inkscape:window-y="0"
     inkscape:window-maximized="1" />
  <metadata
     id="metadata4263">
    <rdf:RDF>
      <cc:Work
         rdf:about="">
        <dc:format>image/svg+xml</dc:format>
        <dc:type
           rdf:resource="http://purl.org/dc/dcmitype/StillImage" />
        <dc:title></dc:title>
      </cc:Work>
    </rdf:RDF>
  </metadata>
  <g
     inkscape:label="Layer 1"
     inkscape:groupmode="layer"
     id="layer1"
     transform="translate(0,-852.36216)">
    <rect
       ry="80"
       rx="80"
       y="-568"
       x="-269"
       height="160"
       width="160"
       id="rect4104-5"
       style="display:inline;opacity:0.5;fill:#000000;fill-opacity:1;stroke:none;filter:url(#filter4210-9);enable-background:new"
       transform="matrix(0,-1.0994369,-1.0994369,0,-436.82315,745.22009)" />
    <path
       id="path4106-9"
       d="m 99.702061,1039.8692 c -48.727048,0 -87.954957,-39.2279 -87.954957,-87.95497 0,-0.73759 -0.01759,-1.46572 0,-2.19887 1.16294,47.69951 39.965499,85.75614 87.954957,85.75614 47.989449,0 86.792009,-38.05663 87.954949,-85.75614 0.0176,0.73315 0,1.46128 0,2.19887 0,48.72707 -39.22791,87.95497 -87.954949,87.95497 z"
       style="display:inline;opacity:0.1;fill:#000000;fill-opacity:1;stroke:none;enable-background:new"
       inkscape:connector-curvature="0" />
    <path
       style="display:inline;fill:#dd4d3e;fill-opacity:1;stroke:none;enable-background:new"
       d="m 99.702061,863.95928 c -30.856318,0 -57.836059,15.80528 -73.524848,39.71716 -2.090359,35.8246 21.493519,48.60822 38.755151,67.06565 -3.039503,-5.60911 -4.810036,-11.97564 -4.810036,-18.82786 0,-21.92717 17.788536,-28.34608 39.579733,-30.78423 L 178.3118,912.3345 C 163.88059,883.57596 134.18761,863.95928 99.702061,863.95928 Z"
       id="path4108-0"
       inkscape:connector-curvature="0"
       sodipodi:nodetypes="sccsscs" />
    <path
       style="display:inline;fill:#109f5b;fill-opacity:1;stroke:none;enable-background:new"
       d="m 23.619659,996.14471 c 15.428134,26.72239 42.605774,42.18489 71.158458,43.81579 27.815393,-19.0914 31.727433,-43.42983 38.703003,-67.09579 -3.33789,5.43684 -7.96618,10.15341 -13.9004,13.57954 -8.51458,4.9159 -16.67005,2.16046 -25.597727,0.51129 -10.9831,-2.02885 -22.42152,-4.52355 -28.469203,-14.99844 L 26.208921,903.87904 C 8.5189375,930.7561 6.3768826,966.27934 23.619659,996.14471 Z"
       id="path4110-4"
       inkscape:connector-curvature="0"
       sodipodi:nodetypes="sccssscs" />
    <path
       style="display:inline;fill:#ffce41;fill-opacity:1;stroke:none;enable-background:new"
       d="m 176.11653,995.90626 c 15.42818,-26.72234 15.23028,-57.9901 2.36639,-83.53292 l -77.45815,0.0308 c 6.37739,0.17239 12.77622,1.82218 18.71044,5.24832 10.38076,5.99333 7.68904,17.70275 9.78214,28.57026 1.7358,9.01236 9.6753,16.8879 4.70505,25.49661 l -39.304874,68.07799 c 32.121194,1.8816 63.956224,-14.025 81.199004,-43.89038 z"
       id="path4112-3"
       inkscape:connector-curvature="0"
       sodipodi:nodetypes="cccssscsc" />
    <path
       inkscape:connector-curvature="0"
       id="path4114-7"
       d="M 65.425,971.7041 99.702061,951.91423 26.068237,903.45844 Z"
       style="display:inline;opacity:0.2;fill:url(#linearGradient4203-5);fill-opacity:1;stroke:none;enable-background:new" />
    <path
       style="display:inline;opacity:0.1;fill:url(#linearGradient4200-5);fill-opacity:1;stroke:none;enable-background:new"
       d="m 99.702061,912.3345 0,39.57973 78.780859,-39.54089 z"
       id="path4116-7"
       inkscape:connector-curvature="0" />
    <path
       inkscape:connector-curvature="0"
       style="display:inline;opacity:0.1;fill:#ffffff;fill-opacity:1;stroke:none;enable-background:new"
       d="m 99.702061,863.95928 c -47.941918,0 -86.581364,37.9855 -87.817527,85.61865 0.01396,-0.27762 0.05222,-0.54765 0.06871,-0.82458 0.03375,-0.71517 0.08685,-1.41966 0.137429,-2.13016 0.01099,-0.12614 0.02331,-0.25195 0.0343,-0.37793 0.05156,-0.58552 0.108954,-1.17013 0.171787,-1.75223 4.263759,-44.68648 41.563398,-79.43431 87.405293,-79.43431 45.841889,0 83.141529,34.74783 87.405229,79.43431 0.0629,0.5821 0.12025,1.16671 0.17179,1.75223 0.0554,0.73441 0.13432,1.45943 0.17179,2.19887 0.007,0.10313 -0.007,0.20599 0,0.30922 0.0165,0.27693 0.0547,0.54696 0.0687,0.82458 -1.23616,-47.63315 -39.87561,-85.61865 -87.817519,-85.61865 z"
       id="path4118-6" />
    <path
       style="display:inline;opacity:0.2;fill:url(#linearGradient4196-5);fill-opacity:1;stroke:none;enable-background:new"
       d="M 133.97912,971.70405 99.702061,951.91419 94.555019,1039.9109 Z"
       id="path4120-7"
       inkscape:connector-curvature="0" />
    <path
       inkscape:connector-curvature="0"
       style="display:inline;opacity:0.1;fill:#ffffff;fill-opacity:1;stroke:none;enable-background:new"
       d="m 11.884534,954.66282 c 1.448134,47.43998 40.013874,85.20638 87.817527,85.20638 47.803649,0 86.369389,-37.7664 87.817519,-85.20638 -0.0565,1.12117 -0.14282,2.22321 -0.2405,3.33267 -0.0698,0.7926 -0.15003,1.58437 -0.2405,2.37066 -0.10522,0.98266 -0.24093,1.94788 -0.37793,2.92038 -6.02416,42.76407 -42.47826,75.48327 -86.958589,75.48327 -44.48033,0 -80.934437,-32.7192 -86.958592,-75.48327 -0.137001,-0.9725 -0.272705,-1.93772 -0.377932,-2.92038 -0.09048,-0.78629 -0.17072,-1.57806 -0.240501,-2.37066 -0.09763,-1.10946 -0.184035,-2.2115 -0.240502,-3.33267 z"
       id="path4122-4" />
    <rect
       transform="matrix(0,-1.0994369,-1.0994369,0,-436.82315,745.22009)"
       style="display:inline;opacity:0.2;fill:#000000;fill-opacity:1;stroke:none;filter:url(#filter4214-2);enable-background:new"
       id="rect4124-3"
       width="72"
       height="72"
       x="-226"
       y="-524"
       rx="36"
       ry="36" />
    <rect
       ry="39.579727"
       rx="39.579727"
       y="-139.28178"
       x="-991.49402"
       height="79.159454"
       width="79.159454"
       id="rect4126-4"
       style="display:inline;fill:#ffffff;fill-opacity:1;stroke:none;enable-background:new"
       transform="matrix(0,-1,-1,0,0,0)" />
    <rect
       transform="matrix(0,-1,-1,0,0,0)"
       style="display:inline;fill:#4587f3;fill-opacity:1;stroke:none;enable-background:new"
       id="rect4128-8"
       width="65.966217"
       height="65.966217"
       x="-984.8974"
       y="-132.68515"
       rx="32.983109"
       ry="32.983109" />
  </g>
</svg>
