<?xml version="1.0" encoding="UTF-8" standalone="no"?>
<!-- Created with Inkscape (http://www.inkscape.org/) -->

<svg
   xmlns:dc="http://purl.org/dc/elements/1.1/"
   xmlns:cc="http://creativecommons.org/ns#"
   xmlns:rdf="http://www.w3.org/1999/02/22-rdf-syntax-ns#"
   xmlns:svg="http://www.w3.org/2000/svg"
   xmlns="http://www.w3.org/2000/svg"
   xmlns:xlink="http://www.w3.org/1999/xlink"
   xmlns:sodipodi="http://sodipodi.sourceforge.net/DTD/sodipodi-0.dtd"
   xmlns:inkscape="http://www.inkscape.org/namespaces/inkscape"
   width="200"
   height="200"
   viewBox="0 0 200 200"
   id="svg4258"
   version="1.1"
   inkscape:version="0.91 r13725"
   sodipodi:docname="inkscape.svg">
  <defs
     id="defs4260">
    <clipPath
       clipPathUnits="userSpaceOnUse"
       id="clipPath4278">
      <path
         sodipodi:nodetypes="ssssssccs"
         style="fill:#e1e1e1;fill-opacity:1;stroke:none"
         d="m 300,196 c -2.216,0 -4,1.784 -4,4 l 0,72 c 0,2.216 1.784,4 4,4 l 56,0 c 2.216,0 4,-1.784 4,-4 l 0,-52 -24,-24 z"
         id="path4280"
         inkscape:connector-curvature="0" />
    </clipPath>
    <clipPath
       clipPathUnits="userSpaceOnUse"
       id="clipPath4088">
      <ellipse
         ry="15.671611"
         rx="17.318172"
         cy="253.67162"
         cx="180.31818"
         style="opacity:0.2;fill:#257db1;fill-opacity:1;stroke:none"
         id="path4090"
         transform="matrix(0.98162783,0,0,1.0847641,2.9946601,55.82614)" />
    </clipPath>
    <linearGradient
       inkscape:collect="always"
       xlink:href="#linearGradient4454"
       id="linearGradient4106"
       gradientUnits="userSpaceOnUse"
       gradientTransform="matrix(4.4862017,0,0,4.4862017,-180.60014,-1043.5963)"
       x1="162.84772"
       y1="251.37308"
       x2="166.64467"
       y2="259.91623" />
    <linearGradient
       inkscape:collect="always"
       id="linearGradient4454">
      <stop
         style="stop-color:#000000;stop-opacity:1;"
         offset="0"
         id="stop4456" />
      <stop
         style="stop-color:#000000;stop-opacity:0;"
         offset="1"
         id="stop4458" />
    </linearGradient>
    <filter
       inkscape:collect="always"
       id="filter4159">
      <feGaussianBlur
         inkscape:collect="always"
         stdDeviation="1.6026474"
         id="feGaussianBlur4161" />
    </filter>
  </defs>
  <sodipodi:namedview
     id="base"
     pagecolor="#4e4e4e"
     bordercolor="#666666"
     borderopacity="1.0"
     inkscape:pageopacity="0"
     inkscape:pageshadow="2"
     inkscape:zoom="4"
     inkscape:cx="115.55581"
     inkscape:cy="100.38454"
     inkscape:document-units="px"
     inkscape:current-layer="g5494"
     showgrid="false"
     units="px"
     inkscape:window-width="1920"
     inkscape:window-height="944"
     inkscape:window-x="1920"
     inkscape:window-y="32"
     inkscape:window-maximized="1" />
  <metadata
     id="metadata4263">
    <rdf:RDF>
      <cc:Work
         rdf:about="">
        <dc:format>image/svg+xml</dc:format>
        <dc:type
           rdf:resource="http://purl.org/dc/dcmitype/StillImage" />
        <dc:title />
      </cc:Work>
    </rdf:RDF>
  </metadata>
  <g
     inkscape:label="Layer 1"
     inkscape:groupmode="layer"
     id="layer1"
     transform="translate(0,-852.36216)">
    <g
       id="g5494">
      <path
         sodipodi:nodetypes="ccccccscccccccccccccccccccccccccccc"
         style="display:inline;opacity:0.5;fill:#000000;fill-opacity:1;fill-rule:evenodd;stroke:none;filter:url(#filter4159);enable-background:new"
         id="path4157"
         d="m 99.3475,872.66156 c -4.57745,0 -9.03333,1.71162 -12.5411,5.3334 l -62.39219,64.3147 c -3.43801,3.54983 -5.26171,8.23055 -5.33001,12.86304 -10e-4,0.0705 0,0.23619 0,0.31315 -6.5e-4,13.78307 36.80615,0.40335 40.13163,17.25522 1.79992,9.12042 -20.06582,4.9419 -20.06582,14.1179 0,10.76433 30.95019,3.36186 39.81807,12.23546 3.64286,8.87347 -11.84856,7.44127 -9.09222,15.68657 5.19482,5.3639 16.88048,2.3222 19.12524,10.9806 2.564,9.8902 19.35801,8.184 29.15816,0.9392 5.19477,-5.3637 -8.01657,-7.8128 -2.82153,-13.1765 5.19459,-5.3639 30.85362,-4.279 31.03918,-16.00027 -2.45203,-7.36346 -12.07991,-8.55238 -12.2278,-17.25519 -0.51653,-7.37028 7.88445,-5.21451 34.48825,-12.54933 10.63786,-4.98833 11.01435,-7.64163 10.97355,-12.23549 -8.4e-4,-0.091 0,-0.21562 0,-0.31276 -0.0606,-4.63242 -2.20571,-9.31314 -5.64342,-12.86297 l -62.07871,-64.31477 c -3.50769,-3.62221 -7.96369,-5.33341 -12.54128,-5.33341 z m 72.73869,110.11943 c -1.26788,-0.04 -2.5467,0.0606 -3.44883,0.31276 -1.70046,0.49017 -9.75584,0.77688 -9.09226,6.90217 7.29839,3.06118 18.426,5.49786 19.75229,-0.62659 0.99573,-4.59272 -3.40701,-6.44765 -7.2112,-6.58811 z M 47.61526,1003.1733 c -0.70819,0.081 -1.18895,0.3631 -1.8811,0.6266 -5.53493,2.1058 -9.24681,6.5352 -4.07596,8.4707 5.17169,1.9351 8.63474,-0.1101 13.16818,-2.5099 4.53402,-2.401 4.40373,-2.8385 4.07589,-3.7647 -0.6285,0.1257 -4.75112,-2.442 -9.09219,-2.8237 -0.72335,-0.061 -1.48682,-0.081 -2.19482,0 z"
         inkscape:connector-curvature="0"
         transform="matrix(1.1178512,0,0,1.1178512,-11.708338,-112.27211)" />
      <path
         inkscape:connector-curvature="0"
         d="m 99.347382,862.11579 c -5.116908,0 -10.097919,1.91334 -14.019084,5.96195 L 15.583115,939.972 c -3.843183,3.96818 -5.8818084,9.20053 -5.9581576,14.37896 -0.00112,0.0788 0,0.26403 0,0.35006 -7.266e-4,15.40742 41.1437976,0.45088 44.8611896,19.28877 2.012043,10.19527 -22.4306,5.52431 -22.4306,15.78171 0,12.0329 34.597706,3.75806 44.510676,13.6774 4.072175,9.9192 -13.244927,8.3183 -10.163749,17.5353 5.807036,5.996 18.869865,2.5958 21.379172,12.2746 2.866171,11.0558 21.639374,9.1485 32.594484,1.0499 5.80698,-5.9958 -8.96133,-8.7335 -3.15405,-14.7293 5.80678,-5.9961 34.48975,-4.7833 34.69718,-17.886 -2.741,-8.2312 -13.50354,-9.56024 -13.66886,-19.28869 -0.5774,-8.23887 8.81364,-5.82904 38.55273,-14.02828 11.89155,-5.57621 12.31241,-8.5422 12.2668,-13.67746 -9.4e-4,-0.10172 0,-0.24103 0,-0.34962 -0.0677,-5.17835 -2.46566,-10.4107 -6.3085,-14.37888 l -69.39476,-71.89434 c -3.92108,-4.04909 -8.90222,-5.96196 -14.019288,-5.96196 z m 81.311028,123.09713 c -1.4173,-0.0447 -2.84683,0.0677 -3.85528,0.34962 -1.90086,0.54794 -10.90557,0.86844 -10.16379,7.7156 8.15851,3.42195 20.59753,6.14579 22.08012,-0.70043 1.11308,-5.13398 -3.80853,-7.20752 -8.06105,-7.36453 z M 41.518436,1008.0085 c -0.791651,0.091 -1.329069,0.4059 -2.102789,0.7004 -6.187228,2.354 -10.336558,7.3054 -4.556317,9.469 5.78118,2.1632 9.652354,-0.1231 14.720065,-2.8057 5.06836,-2.6839 4.922715,-3.173 4.556239,-4.2084 -0.70257,0.1406 -5.311045,-2.7297 -10.163715,-3.1564 -0.808598,-0.068 -1.662044,-0.091 -2.453483,0 z"
         id="path4071"
         style="display:inline;fill:#4d4d4d;fill-opacity:1;fill-rule:evenodd;stroke:none;enable-background:new"
         sodipodi:nodetypes="ccccccscccccccccccccccccccccccccccc" />
      <path
         style="display:inline;opacity:0.2;fill:url(#linearGradient4106);fill-opacity:1;fill-rule:evenodd;stroke:none;enable-background:new"
         d="m 100.75,29.320312 c -5.172639,-0.04015 -6.882129,1.589272 -9.113281,3.857422 -4.75829,18.16023 -20.335348,21.630477 -29.089844,29.810547 l -4.90625,6.3125 59.408205,98.115239 c 0.0601,-0.0665 0.10865,-0.13194 0.17383,-0.19922 5.80678,-5.9961 34.48983,-4.78207 34.69726,-17.88477 -2.741,-8.2312 -13.5046,-9.56061 -13.66992,-19.28906 -0.5774,-8.23887 8.81364,-5.83006 38.55273,-14.0293 2.50378,-1.17407 4.475,-2.22759 6.06446,-3.21484 C 153.8915,81.803658 104.76276,29.354349 100.75,29.320312 Z"
         transform="translate(0,852.36216)"
         id="path4073"
         inkscape:connector-curvature="0"
         sodipodi:nodetypes="ccccccccccc" />
      <path
         style="display:inline;fill:#ffffff;fill-opacity:1;fill-rule:evenodd;stroke:none;enable-background:new"
         id="path4075"
         d="m 100.74914,881.6823 c 5.26999,0.0447 19.71075,17.86623 32.59464,31.21264 3.62406,4.84952 -1.4018,9.81967 -1.4018,9.81967 l -26.98695,-14.72956 -11.916331,16.13247 -10.51405,-15.78184 -6.308772,24.54937 -18.575389,-11.22263 4.906741,-6.31251 29.089618,-29.80985 c 2.231152,-2.26815 3.939654,-3.89791 9.112293,-3.85776 z"
         inkscape:connector-curvature="0"
         sodipodi:nodetypes="ccccccccccc" />
      <path
         inkscape:connector-curvature="0"
         style="display:inline;opacity:0.2;fill:#ffffff;fill-opacity:1;fill-rule:evenodd;stroke:none;enable-background:new"
         d="m 99.347382,862.11579 c -5.116908,0 -10.086908,1.92491 -14.008073,5.97352 l -69.7609,71.8918 c -3.843183,3.96818 -5.862235,9.17897 -5.9385842,14.3574 -0.00112,0.0788 0,0.2633 0,0.34933 -1.12e-5,0.24074 -0.019786,0.47249 0,0.69866 0.093676,-5.15543 2.1128172,-10.33734 5.9385842,-14.28754 l 69.7609,-71.8918 c 3.921165,-4.04861 8.891165,-5.97352 14.008073,-5.97352 5.117068,0 10.086998,1.92443 14.008068,5.97352 l 69.41158,71.8918 c 3.84284,3.96818 6.22017,9.17905 6.28791,14.3574 0.002,-0.25544 0.002,-0.50207 0,-0.76852 -9.4e-4,-0.10172 0,-0.24074 0,-0.34933 -0.0677,-5.17835 -2.44507,-10.38922 -6.28791,-14.3574 l -69.41158,-71.8918 c -3.92107,-4.0491 -8.891,-5.97352 -14.008068,-5.97352 z M 54.563469,975.71742 c -1.027473,7.92503 -22.496755,4.42669 -22.496755,14.043 0,0.16941 0.02135,0.3276 0.03488,0.48906 0.988751,-9.22175 23.373754,-5.33558 22.461822,-14.53206 z m 83.699111,6.67217 c -0.0214,0.35745 -0.0285,0.71103 0,1.11785 0.16392,9.64634 10.73806,11.06093 13.58887,19.10826 0.0367,-0.2968 0.065,-0.5954 0.0699,-0.9082 -2.741,-8.2313 -13.49343,-9.58946 -13.65874,-19.31791 z m 41.32556,2.82956 c -1.04725,0.0259 -2.03829,0.13792 -2.79463,0.34933 -1.87373,0.54011 -10.62577,0.87358 -10.16546,7.4407 0.54782,-5.49782 8.40331,-5.8149 10.16546,-6.32285 1.00845,-0.28188 2.46024,-0.39404 3.87754,-0.34933 3.62928,0.134 7.73749,1.67288 8.17429,5.30979 0.36088,-4.45865 -4.18755,-6.28044 -8.17429,-6.42764 -0.35432,-0.0112 -0.73383,-0.009 -1.08291,0 z M 77.13009,1006.8077 c -0.679721,5.9126 -11.812401,6.1749 -11.038781,12.7504 0.568998,-5.8682 11.701756,-6.1095 11.038781,-12.7504 z m -34.373924,1.1527 c -0.41337,0 -0.82693,-0.011 -1.22265,0.035 -0.791651,0.091 -1.357183,0.4041 -2.130904,0.6986 -4.43352,1.6869 -7.79387,4.7186 -7.231099,7.0913 0.475366,-2.1433 3.464265,-4.5402 7.231099,-5.9734 0.773721,-0.2946 1.339253,-0.6083 2.130904,-0.6987 0.791439,-0.091 1.636702,-0.068 2.4453,0 4.85267,0.4268 9.462889,3.3194 10.165459,3.1789 0.215589,-0.3971 0.142135,-0.7164 0,-1.1179 -0.70257,0.1405 -5.312789,-2.752 -10.165459,-3.1788 -0.404294,-0.034 -0.80928,-0.032 -1.22265,-0.035 z m 73.149384,14.9862 c -0.67811,3.4425 5.14455,5.8509 5.79886,9.0825 0.63354,-3.4359 -5.18168,-5.8447 -5.79886,-9.0825 z"
         id="path4113" />
    </g>
  </g>
</svg>
