<?xml version="1.0" encoding="UTF-8" standalone="no"?>
<!-- Created with Inkscape (http://www.inkscape.org/) -->

<svg
   xmlns:dc="http://purl.org/dc/elements/1.1/"
   xmlns:cc="http://creativecommons.org/ns#"
   xmlns:rdf="http://www.w3.org/1999/02/22-rdf-syntax-ns#"
   xmlns:svg="http://www.w3.org/2000/svg"
   xmlns="http://www.w3.org/2000/svg"
   xmlns:sodipodi="http://sodipodi.sourceforge.net/DTD/sodipodi-0.dtd"
   xmlns:inkscape="http://www.inkscape.org/namespaces/inkscape"
   width="200"
   height="200"
   viewBox="0 0 200 200"
   id="svg4258"
   version="1.1"
   inkscape:version="0.91 r13725"
   sodipodi:docname="text-editor.svg">
  <defs
     id="defs4260">
    <filter
       style="color-interpolation-filters:sRGB"
       inkscape:collect="always"
       id="filter4151">
      <feGaussianBlur
         inkscape:collect="always"
         stdDeviation="0.475"
         id="feGaussianBlur4153" />
    </filter>
    <clipPath
       clipPathUnits="userSpaceOnUse"
       id="clipPath4278">
      <path
         sodipodi:nodetypes="ssssssccs"
         style="fill:#e1e1e1;fill-opacity:1;stroke:none"
         d="m 300,196 c -2.216,0 -4,1.784 -4,4 l 0,72 c 0,2.216 1.784,4 4,4 l 56,0 c 2.216,0 4,-1.784 4,-4 l 0,-52 -24,-24 z"
         id="path4280"
         inkscape:connector-curvature="0" />
    </clipPath>
    <filter
       inkscape:collect="always"
       id="filter4293"
       x="-0.1225"
       width="1.245"
       y="-0.1176"
       height="1.2352">
      <feGaussianBlur
         inkscape:collect="always"
         stdDeviation="1.225"
         id="feGaussianBlur4295" />
    </filter>
    <filter
       inkscape:collect="always"
       id="filter5093">
      <feGaussianBlur
         inkscape:collect="always"
         stdDeviation="1.44"
         id="feGaussianBlur5095" />
    </filter>
  </defs>
  <sodipodi:namedview
     id="base"
     pagecolor="#4e4e4e"
     bordercolor="#666666"
     borderopacity="1.0"
     inkscape:pageopacity="0"
     inkscape:pageshadow="2"
     inkscape:zoom="2.8"
     inkscape:cx="78.091448"
     inkscape:cy="91.716668"
     inkscape:document-units="px"
     inkscape:current-layer="layer1"
     showgrid="false"
     units="px"
     inkscape:window-width="1920"
     inkscape:window-height="1047"
     inkscape:window-x="0"
     inkscape:window-y="0"
     inkscape:window-maximized="1" />
  <metadata
     id="metadata4263">
    <rdf:RDF>
      <cc:Work
         rdf:about="">
        <dc:format>image/svg+xml</dc:format>
        <dc:type
           rdf:resource="http://purl.org/dc/dcmitype/StillImage" />
        <dc:title></dc:title>
      </cc:Work>
    </rdf:RDF>
  </metadata>
  <g
     inkscape:label="Layer 1"
     inkscape:groupmode="layer"
     id="layer1"
     transform="translate(0,-852.36216)">
    <path
       style="display:inline;opacity:0.5;fill:#000000;fill-opacity:1;stroke:none;filter:url(#filter5093);enable-background:new"
       d="m 38.758849,867.54183 c -4.432,0 -8,3.568 -8,8 l 0,144.00007 c 0,4.432 3.568,8 8,8 l 112.000001,0 c 4.432,0 8,-3.568 8,-8 l 0,-104.00007 -48,-48 -72.000001,0 z"
       id="path4320"
       inkscape:connector-curvature="0"
       transform="matrix(1.0207434,0,0,1.0203935,-2.2020982,-19.390995)" />
    <path
       style="display:inline;fill:#e1e1e1;fill-opacity:1;stroke:none;enable-background:new"
       d="m 37.36065,864.82266 c -4.523935,0 -8.165947,3.64076 -8.165947,8.16315 l 0,146.93669 c 0,4.5224 3.642012,8.1632 8.165947,8.1632 l 114.32327,0 c 4.52393,0 8.16594,-3.6408 8.16594,-8.1632 l 0,-106.12095 -44.91271,-4.08158 -4.08297,-44.89731 z"
       id="rect3322"
       inkscape:connector-curvature="0"
       sodipodi:nodetypes="sssssscccs" />
    <path
       clip-path="url(#clipPath4278)"
       sodipodi:nodetypes="cssccc"
       inkscape:connector-curvature="0"
       style="display:inline;opacity:0.2;fill:#000000;fill-opacity:1;stroke:none;filter:url(#filter4293);enable-background:new"
       d="m 336,196 0,21 c 0,2.20914 1.79086,4 4,4 l 20,0 0,-1 z"
       id="path4285"
       transform="matrix(2.0414869,0,0,2.040787,-575.08541,464.8284)" />
    <path
       id="path4287"
       d="m 110.85418,864.82266 0,40.81574 c 0,4.50838 3.65602,8.16315 8.16595,8.16315 l 40.82973,0 -48.99568,-48.97889 z"
       style="display:inline;fill:#f5f5f5;fill-opacity:1;stroke:none;enable-background:new"
       inkscape:connector-curvature="0" />
    <path
       style="display:inline;opacity:0.2;fill:#ffffff;fill-opacity:1;stroke:none;enable-background:new"
       d="m 37.360742,864.82266 c -4.523935,0 -8.165947,3.64076 -8.165947,8.16315 l 0,1.02039 c 0,-4.52238 3.642012,-8.16315 8.165947,-8.16315 l 73.493528,0 0,-1.02039 z"
       id="path4300"
       inkscape:connector-curvature="0"
       sodipodi:nodetypes="sscsccs" />
    <path
       inkscape:connector-curvature="0"
       style="display:inline;opacity:0.1;fill:#000000;fill-opacity:1;stroke:none;enable-background:new"
       d="m 29.194795,1018.9021 0,1.0204 c 0,4.5224 3.642012,8.1632 8.165947,8.1632 l 114.323268,0 c 4.52393,0 8.16594,-3.6408 8.16594,-8.1632 l 0,-1.0204 c 0,4.5224 -3.64201,8.1632 -8.16594,8.1632 l -114.323268,0 c -4.523935,0 -8.165947,-3.6408 -8.165947,-8.1632 z"
       id="path4305" />
    <circle
       style="display:inline;opacity:0.5;fill:#000000;fill-opacity:1;fill-rule:evenodd;stroke:none;filter:url(#filter4151);enable-background:new"
       id="path4255"
       transform="matrix(5.1574405,0,0,5.1556725,-752.26493,-19.697401)"
       cx="172.5"
       cy="196.5"
       r="9.5" />
    <ellipse
       cy="991.3515"
       cx="137.39355"
       id="path4257"
       style="display:inline;fill:#e74c3c;fill-opacity:1;fill-rule:evenodd;stroke:none;enable-background:new"
       rx="48.995686"
       ry="48.978889" />
    <path
       inkscape:connector-curvature="0"
       d="m 112.89572,1004.9315 0,10.9095 10.91317,0 27.56281,-27.55346 -10.91318,-10.90944 z m 48.12997,-26.25966 c 1.15429,-1.1539 1.15429,-2.97212 0,-4.12602 l -6.82073,-6.8184 c -1.1543,-1.15389 -2.97314,-1.15389 -4.12744,0 l -5.70142,5.73445 10.91317,10.90944 z"
       id="path3881"
       sodipodi:nodetypes="cccccccsscccc"
       style="display:inline;fill:#ffffff;fill-opacity:1;stroke:none;enable-background:new" />
  </g>
</svg>
