<?xml version="1.0" encoding="UTF-8" standalone="no"?>
<!-- Created with Inkscape (http://www.inkscape.org/) -->

<svg
   xmlns:dc="http://purl.org/dc/elements/1.1/"
   xmlns:cc="http://creativecommons.org/ns#"
   xmlns:rdf="http://www.w3.org/1999/02/22-rdf-syntax-ns#"
   xmlns:svg="http://www.w3.org/2000/svg"
   xmlns="http://www.w3.org/2000/svg"
   xmlns:xlink="http://www.w3.org/1999/xlink"
   xmlns:sodipodi="http://sodipodi.sourceforge.net/DTD/sodipodi-0.dtd"
   xmlns:inkscape="http://www.inkscape.org/namespaces/inkscape"
   width="200"
   height="200"
   viewBox="0 0 200 200"
   id="svg4258"
   version="1.1"
   inkscape:version="0.91 r13725"
   sodipodi:docname="web-browser.svg">
  <defs
     id="defs4260">
    <linearGradient
       inkscape:collect="always"
       id="linearGradient7622">
      <stop
         style="stop-color:#50a5ef;stop-opacity:1"
         offset="0"
         id="stop7624" />
      <stop
         style="stop-color:#6076c8;stop-opacity:1"
         offset="1"
         id="stop7626" />
    </linearGradient>
    <linearGradient
       inkscape:collect="always"
       id="linearGradient5269">
      <stop
         style="stop-color:#1e1e1d;stop-opacity:1;"
         offset="0"
         id="stop5271" />
      <stop
         style="stop-color:#1e1e1d;stop-opacity:0;"
         offset="1"
         id="stop5273" />
    </linearGradient>
    <clipPath
       clipPathUnits="userSpaceOnUse"
       id="clipPath4278">
      <path
         sodipodi:nodetypes="ssssssccs"
         style="fill:#e1e1e1;fill-opacity:1;stroke:none"
         d="m 300,196 c -2.216,0 -4,1.784 -4,4 l 0,72 c 0,2.216 1.784,4 4,4 l 56,0 c 2.216,0 4,-1.784 4,-4 l 0,-52 -24,-24 z"
         id="path4280"
         inkscape:connector-curvature="0" />
    </clipPath>
    <linearGradient
       inkscape:collect="always"
       id="linearGradient4081">
      <stop
         style="stop-color:#000000;stop-opacity:1;"
         offset="0"
         id="stop4083" />
      <stop
         style="stop-color:#000000;stop-opacity:0;"
         offset="1"
         id="stop4086" />
    </linearGradient>
    <filter
       inkscape:collect="always"
       id="filter4214-2"
       x="-0.12"
       width="1.24"
       y="-0.12"
       height="1.24">
      <feGaussianBlur
         inkscape:collect="always"
         stdDeviation="3.6"
         id="feGaussianBlur4216-1" />
    </filter>
    <linearGradient
       inkscape:collect="always"
       xlink:href="#linearGradient4081"
       id="linearGradient4196-5"
       gradientUnits="userSpaceOnUse"
       gradientTransform="matrix(4.3977476,0,0,4.3977476,-172.95829,-172.80972)"
       x1="168"
       y1="266"
       x2="160"
       y2="270" />
    <filter
       inkscape:collect="always"
       id="filter4210-9">
      <feGaussianBlur
         inkscape:collect="always"
         stdDeviation="1.6"
         id="feGaussianBlur4212-0" />
    </filter>
    <linearGradient
       inkscape:collect="always"
       xlink:href="#linearGradient5269"
       id="linearGradient5275"
       x1="302.91635"
       y1="922.6524"
       x2="363.65076"
       y2="1029.7623"
       gradientUnits="userSpaceOnUse"
       gradientTransform="matrix(1.2506266,0,0,1.2506266,-329.85485,-249.24094)" />
    <linearGradient
       inkscape:collect="always"
       xlink:href="#linearGradient4081"
       id="linearGradient6138"
       x1="70.091957"
       y1="944.66095"
       x2="70.091957"
       y2="940.3299"
       gradientUnits="userSpaceOnUse"
       gradientTransform="matrix(1,0,0,0.10806173,-6.9678764e-7,842.49797)" />
    <clipPath
       clipPathUnits="userSpaceOnUse"
       id="clipPath6381">
      <path
         style="display:inline;fill:#78909c;fill-opacity:1;stroke:none;enable-background:new"
         d="m 99.701172,863.95982 c -30.856318,0 -57.834649,15.80491 -73.523438,39.71679 -0.0053,0.091 -0.0048,0.17686 -0.0098,0.26758 -17.6512218,26.86944 -19.7779367,62.35948 -2.548828,92.20117 15.428134,26.72234 42.605519,42.18354 71.158203,43.81444 0.07622,-0.052 0.146798,-0.1058 0.222656,-0.1582 32.09333,1.8497 63.8891,-14.0546 81.11719,-43.89452 15.42818,-26.72234 15.22912,-57.99038 2.36523,-83.5332 l -0.52148,0 0.35156,-0.0391 c -14.43121,-28.75854 -44.12578,-48.375 -78.611328,-48.375 z"
         id="path6383"
         inkscape:connector-curvature="0" />
    </clipPath>
    <filter
       inkscape:collect="always"
       style="color-interpolation-filters:sRGB"
       id="filter6733"
       x="-0.0043741405"
       width="1.0087483"
       y="-0.37184717"
       height="1.7436943">
      <feGaussianBlur
         inkscape:collect="always"
         stdDeviation="0.24650219"
         id="feGaussianBlur6735" />
    </filter>
    <linearGradient
       inkscape:collect="always"
       xlink:href="#linearGradient7622"
       id="linearGradient7628"
       x1="-984.8974"
       y1="-99.702042"
       x2="-918.93118"
       y2="-99.702042"
       gradientUnits="userSpaceOnUse"
       gradientTransform="matrix(1.3197618,0,0,1.3197618,300.18629,31.880902)" />
  </defs>
  <sodipodi:namedview
     id="base"
     pagecolor="#4e4e4e"
     bordercolor="#666666"
     borderopacity="1.0"
     inkscape:pageopacity="0"
     inkscape:pageshadow="2"
     inkscape:zoom="1"
     inkscape:cx="-20.362139"
     inkscape:cy="-27.364635"
     inkscape:document-units="px"
     inkscape:current-layer="layer1"
     showgrid="false"
     units="px"
     inkscape:window-width="1920"
     inkscape:window-height="935"
     inkscape:window-x="1920"
     inkscape:window-y="32"
     inkscape:window-maximized="1" />
  <metadata
     id="metadata4263">
    <rdf:RDF>
      <cc:Work
         rdf:about="">
        <dc:format>image/svg+xml</dc:format>
        <dc:type
           rdf:resource="http://purl.org/dc/dcmitype/StillImage" />
        <dc:title />
      </cc:Work>
    </rdf:RDF>
  </metadata>
  <g
     inkscape:label="Layer 1"
     inkscape:groupmode="layer"
     id="layer1"
     transform="translate(0,-852.36216)">
    <path
       style="fill:#1e1e1d;fill-opacity:1;fill-rule:evenodd;stroke:none;stroke-width:1px;stroke-linecap:butt;stroke-linejoin:miter;stroke-opacity:1"
       d="m 189.63393,1001.2475 -37.37223,20.7574 0,-25.63782 z"
       id="path5265"
       inkscape:connector-curvature="0" />
    <rect
       ry="80"
       rx="80"
       y="-568"
       x="-269"
       height="160"
       width="160"
       id="rect4104-5"
       style="display:inline;opacity:0.5;fill:#000000;fill-opacity:1;stroke:none;filter:url(#filter4210-9);enable-background:new"
       transform="matrix(0,-1.0994369,-1.0994369,0,-436.82315,745.22009)" />
    <path
       id="path4106-9"
       d="m 99.702061,1039.8692 c -48.727048,0 -87.954957,-39.2279 -87.954957,-87.95497 0,-0.73759 -0.01759,-1.46572 0,-2.19887 1.16294,47.69951 39.965499,85.75614 87.954957,85.75614 47.989449,0 86.792009,-38.05663 87.954949,-85.75614 0.0176,0.73315 0,1.46128 0,2.19887 0,48.72707 -39.22791,87.95497 -87.954949,87.95497 z"
       style="display:inline;opacity:0.1;fill:#000000;fill-opacity:1;stroke:none;enable-background:new"
       inkscape:connector-curvature="0" />
    <path
       style="display:inline;fill:#78909c;fill-opacity:1;stroke:none;enable-background:new"
       d="M 99.701172 11.597656 C 68.844854 11.597656 41.866523 27.402573 26.177734 51.314453 C 26.172423 51.405473 26.172949 51.491308 26.167969 51.582031 C 8.5166431 78.451473 6.3900335 113.94151 23.619141 143.7832 C 39.047275 170.50559 66.22466 185.96676 94.777344 187.59766 C 94.85356 187.54534 94.924142 187.49184 95 187.43945 C 127.09333 189.28917 158.8891 173.38486 176.11719 143.54492 C 191.54537 116.82258 191.34631 85.554539 178.48242 60.011719 L 177.96094 60.011719 L 178.3125 59.972656 C 163.88129 31.214116 134.18672 11.597656 99.701172 11.597656 z M 121.3457 66.345703 C 129.82526 72.587313 127.54107 83.599191 129.51758 93.861328 C 131.25338 102.87369 139.19291 110.74871 134.22266 119.35742 L 133.40234 120.7793 C 133.42943 120.68708 133.45329 120.59415 133.48047 120.50195 C 130.14258 125.93879 125.5143 130.6559 119.58008 134.08203 C 111.0655 138.99793 102.9101 136.24292 93.982422 134.59375 C 82.999322 132.5649 71.561355 130.07059 65.513672 119.5957 L 64.636719 118.07812 C 64.733266 118.1806 64.83548 118.27804 64.931641 118.38086 C 61.892138 112.77175 60.123047 106.40495 60.123047 99.552734 C 60.123047 77.625564 77.909975 71.205728 99.701172 68.767578 L 121.3457 66.345703 z "
       transform="translate(0,852.36216)"
       id="path4108-0" />
    <path
       inkscape:connector-curvature="0"
       style="display:inline;opacity:0.1;fill:#ffffff;fill-opacity:1;stroke:none;enable-background:new"
       d="m 99.702061,863.95928 c -47.941918,0 -86.581364,37.9855 -87.817527,85.61865 0.01396,-0.27762 0.05222,-0.54765 0.06871,-0.82458 0.03375,-0.71517 0.08685,-1.41966 0.137429,-2.13016 0.01099,-0.12614 0.02331,-0.25195 0.0343,-0.37793 0.05156,-0.58552 0.108954,-1.17013 0.171787,-1.75223 4.263759,-44.68648 41.563398,-79.43431 87.405293,-79.43431 45.841889,0 83.141529,34.74783 87.405229,79.43431 0.0629,0.5821 0.12025,1.16671 0.17179,1.75223 0.0554,0.73441 0.13432,1.45943 0.17179,2.19887 0.007,0.10313 -0.007,0.20599 0,0.30922 0.0165,0.27693 0.0547,0.54696 0.0687,0.82458 -1.23616,-47.63315 -39.87561,-85.61865 -87.817519,-85.61865 z"
       id="path4118-6" />
    <path
       style="display:inline;opacity:0.2;fill:url(#linearGradient4196-5);fill-opacity:1;stroke:none;enable-background:new"
       d="M 133.97912,971.70405 99.702061,951.91419 94.555019,1039.9109 Z"
       id="path4120-7"
       inkscape:connector-curvature="0" />
    <path
       inkscape:connector-curvature="0"
       style="display:inline;opacity:0.1;fill:#ffffff;fill-opacity:1;stroke:none;enable-background:new"
       d="m 11.884534,954.66282 c 1.448134,47.43998 40.013874,85.20638 87.817527,85.20638 47.803649,0 86.369389,-37.7664 87.817519,-85.20638 -0.0565,1.12117 -0.14282,2.22321 -0.2405,3.33267 -0.0698,0.7926 -0.15003,1.58437 -0.2405,2.37066 -0.10522,0.98266 -0.24093,1.94788 -0.37793,2.92038 -6.02416,42.76407 -42.47826,75.48327 -86.958589,75.48327 -44.48033,0 -80.934437,-32.7192 -86.958592,-75.48327 -0.137001,-0.9725 -0.272705,-1.93772 -0.377932,-2.92038 -0.09048,-0.78629 -0.17072,-1.57806 -0.240501,-2.37066 -0.09763,-1.10946 -0.184035,-2.2115 -0.240502,-3.33267 z"
       id="path4122-4" />
    <path
       transform="matrix(1,0,0,9.2539705,0,-7796.4514)"
       style="opacity:0.31400003;fill:url(#linearGradient6138);fill-opacity:1;stroke:none;stroke-width:5.19999981;stroke-miterlimit:4;stroke-dasharray:none;stroke-opacity:1;filter:url(#filter6733)"
       clip-path="url(#clipPath6381)"
       d="m 59.13501,943.41134 130.50063,-0.10806 0,1.59099 -135.25063,-0.10802 z"
       id="rect5259-3"
       inkscape:connector-curvature="0"
       sodipodi:nodetypes="ccccc" />
    <g
       id="g5343"
       transform="matrix(0.92765181,0,0,0.92765181,7.2132624,65.687284)">
      <rect
         transform="matrix(0,-1,-1,0,0,0)"
         style="display:inline;fill:#ffffff;fill-opacity:1;stroke:none;enable-background:new"
         id="rect4126-4-8"
         width="97.736626"
         height="97.736626"
         x="-1000.7825"
         y="-148.57036"
         rx="69.34549"
         ry="69.34549" />
      <rect
         ry="57.787914"
         rx="57.787914"
         y="-143.48866"
         x="-995.70093"
         height="87.573242"
         width="87.573242"
         id="rect4128-8-6"
         style="display:inline;fill:#37474f;fill-opacity:1;stroke:none;enable-background:new"
         transform="matrix(0,-1,-1,0,0,0)" />
      <g
         transform="matrix(0.81680702,0,0,0.81680702,18.264715,174.384)"
         id="g5338">
        <rect
           transform="matrix(0,-1.0994369,-1.0994369,0,-436.82315,745.22009)"
           style="display:inline;opacity:0.2;fill:#000000;fill-opacity:1;stroke:none;filter:url(#filter4214-2);enable-background:new"
           id="rect4124-3"
           width="72"
           height="72"
           x="-226"
           y="-524"
           rx="47.511425"
           ry="47.511425" />
        <rect
           transform="matrix(0,-1,-1,0,0,0)"
           style="display:inline;fill:url(#linearGradient7628);fill-opacity:1;stroke:none;enable-background:new"
           id="rect4128-8"
           width="65.966217"
           height="65.966217"
           x="-984.8974"
           y="-132.68515"
           rx="43.529846"
           ry="43.529846" />
        <path
           style="display:inline;opacity:0.08800001;fill:#ffffff;fill-opacity:1;stroke:none;enable-background:new"
           d="m 99.701172,66.568359 c -18.272642,0 -32.982422,14.711733 -32.982422,32.984375 0,0.146203 0.0098,0.289806 0.01172,0.435547 0.233577,-18.068505 14.844751,-31.961089 32.970703,-31.961089 18.125947,0 32.739077,13.892584 32.972657,31.961089 0.002,-0.145741 0.0117,-0.289344 0.0117,-0.435547 0,-18.272642 -14.71174,-32.984375 -32.984377,-32.984375 z"
           transform="translate(0,852.36216)"
           id="rect4128-8-2"
           inkscape:connector-curvature="0"
           sodipodi:nodetypes="cscscssc" />
      </g>
    </g>
    <rect
       style="opacity:1;fill:#404042;fill-opacity:1;stroke:none;stroke-width:5.19999981;stroke-miterlimit:4;stroke-dasharray:none;stroke-opacity:1"
       id="rect5259"
       width="135.25063"
       height="56.631096"
       x="54.38501"
       y="944.61304"
       rx="0"
       ry="0" />
    <g
       style="font-style:normal;font-variant:normal;font-weight:normal;font-stretch:normal;font-size:37.50400162px;line-height:125%;font-family:roboto;-inkscape-font-specification:roboto;letter-spacing:0px;word-spacing:0px;fill:#ffffff;fill-opacity:1;stroke:none;stroke-width:1px;stroke-linecap:butt;stroke-linejoin:miter;stroke-opacity:1"
       id="text5093">
      <path
         d="m 80.617902,977.48867 0.51275,3.516 0.750813,-3.16807 5.274,-18.6055 2.966625,0 5.145813,18.6055 0.7325,3.223 0.567688,-3.58925 4.138629,-18.23925 3.53431,0 -6.464314,26.663 -3.204688,0 -5.49375,-19.42956 -0.421188,-2.03269 -0.421187,2.03269 -5.695188,19.42956 -3.204688,0 -6.446,-26.663 3.516,0 4.211875,18.25757 z"
         style=""
         id="path5352" />
      <path
         d="m 113.8734,977.48867 0.51275,3.516 0.75082,-3.16807 5.274,-18.6055 2.96662,0 5.14581,18.6055 0.7325,3.223 0.56769,-3.58925 4.13863,-18.23925 3.53431,0 -6.46431,26.663 -3.20469,0 -5.49375,-19.42956 -0.42119,-2.03269 -0.42119,2.03269 -5.69518,19.42956 -3.20469,0 -6.446,-26.663 3.516,0 4.21187,18.25757 z"
         style=""
         id="path5354" />
      <path
         d="m 147.1289,977.48867 0.51275,3.516 0.75082,-3.16807 5.274,-18.6055 2.96662,0 5.14581,18.6055 0.7325,3.223 0.56769,-3.58925 4.13863,-18.23925 3.53431,0 -6.46431,26.663 -3.20469,0 -5.49375,-19.42956 -0.42119,-2.03269 -0.42119,2.03269 -5.69518,19.42956 -3.20469,0 -6.446,-26.663 3.516,0 4.21187,18.25757 z"
         style=""
         id="path5356" />
    </g>
    <path
       style="fill:url(#linearGradient5275);fill-opacity:1;fill-rule:evenodd;stroke:none;stroke-width:1px;stroke-linecap:butt;stroke-linejoin:miter;stroke-opacity:1"
       d="m 54.380625,1001.2328 66.472265,35.5006 31.87779,-15.1974 c 8.74798,-7.9835 12.9022,-11.5607 19.11893,-20.5754 z"
       id="path5267"
       inkscape:connector-curvature="0"
       sodipodi:nodetypes="ccccc" />
  </g>
</svg>
